<svg xmlns="http://www.w3.org/2000/svg" xmlns:xlink="http://www.w3.org/1999/xlink" version="1.1" width="460.8" height="345.6" viewBox="0 0 460.8 345.6">
<defs>
<clipPath id="clip_0">
<path transform="matrix(.01,0,0,-.01,29.50625,280.02177)" d="M-1021-463H1794V1233H-1021Z"/>
</clipPath>
<clipPath id="clip_1">
<path transform="matrix(.01,0,0,-.01,29.50625,241.49552)" d="M-1021-463H1794V1233H-1021Z"/>
</clipPath>
<clipPath id="clip_2">
<path transform="matrix(.01,0,0,-.01,29.50625,202.96927)" d="M-1021-463H1794V1233H-1021Z"/>
</clipPath>
<clipPath id="clip_3">
<path transform="matrix(.01,0,0,-.01,29.50625,164.44303)" d="M-1021-463H1794V1233H-1021Z"/>
</clipPath>
<clipPath id="clip_4">
<path transform="matrix(1,0,0,-1,0,345.6)" d="M57.6 38.016H414.72V304.128H57.6Z"/>
</clipPath>
<clipPath id="clip_5">
<path transform="matrix(1,0,0,-1,0,345.6)" d="M57.6 38.016H414.72V304.128H57.6Z"/>
</clipPath>
<clipPath id="clip_6">
<path transform="matrix(1,0,0,-1,0,345.6)" d="M57.6 38.016H414.72V304.128H57.6Z"/>
</clipPath>
<clipPath id="clip_7">
<path transform="matrix(1,0,0,-1,0,345.6)" d="M57.6 38.016H414.72V304.128H57.6Z"/>
</clipPath>
<clipPath id="clip_8">
<path transform="matrix(1,0,0,-1,0,345.6)" d="M57.6 38.016H414.72V304.128H57.6Z"/>
</clipPath>
<clipPath id="clip_9">
<path transform="matrix(1,0,0,-1,0,345.6)" d="M57.6 38.016H414.72V304.128H57.6Z"/>
</clipPath>
<clipPath id="clip_10">
<path transform="matrix(1,0,0,-1,0,345.6)" d="M57.6 38.016H414.72V304.128H57.6Z"/>
</clipPath>
</defs>
<path transform="matrix(1,0,0,-1,0,345.6)" d="M0 0H460.8V345.6H0Z" fill="#ffffff"/>
<path transform="matrix(1,0,0,-1,0,345.6)" d="M57.6 38.016H414.72V304.128H57.6Z" fill="#ffffff"/>
<path transform="matrix(1,0,0,-1,0,345.6)" d="M73.832729 38.016V34.516"/>
<path transform="matrix(1,0,0,-1,0,345.6)" stroke-width=".8" stroke-linecap="butt" stroke-linejoin="round" fill="none" stroke="#000000" d="M73.832729 38.016V34.516"/>
<text xml:space="preserve" transform="matrix(1 0 -0 1 70.65304 322.17778)" font-size="10" font-family="DejaVuSans"><tspan y="0" x="0">0</tspan></text>
<path transform="matrix(1,0,0,-1,0,345.6)" d="M117.82386 38.016V34.516"/>
<path transform="matrix(1,0,0,-1,0,345.6)" stroke-width=".8" stroke-linecap="butt" stroke-linejoin="round" fill="none" stroke="#000000" d="M117.82386 38.016V34.516"/>
<text xml:space="preserve" transform="matrix(1 0 -0 1 114.64417 322.17778)" font-size="10" font-family="DejaVuSans"><tspan y="0" x="0">5</tspan></text>
<path transform="matrix(1,0,0,-1,0,345.6)" d="M161.81499 38.016V34.516"/>
<path transform="matrix(1,0,0,-1,0,345.6)" stroke-width=".8" stroke-linecap="butt" stroke-linejoin="round" fill="none" stroke="#000000" d="M161.81499 38.016V34.516"/>
<text xml:space="preserve" transform="matrix(1 0 -0 1 155.45561 322.17778)" font-size="10" font-family="DejaVuSans"><tspan y="0" x="0 6.3600008">10</tspan></text>
<path transform="matrix(1,0,0,-1,0,345.6)" d="M205.80612 38.016V34.516"/>
<path transform="matrix(1,0,0,-1,0,345.6)" stroke-width=".8" stroke-linecap="butt" stroke-linejoin="round" fill="none" stroke="#000000" d="M205.80612 38.016V34.516"/>
<text xml:space="preserve" transform="matrix(1 0 -0 1 199.44675 322.17778)" font-size="10" font-family="DejaVuSans"><tspan y="0" x="0 6.3600008">15</tspan></text>
<path transform="matrix(1,0,0,-1,0,345.6)" d="M249.79726 38.016V34.516"/>
<path transform="matrix(1,0,0,-1,0,345.6)" stroke-width=".8" stroke-linecap="butt" stroke-linejoin="round" fill="none" stroke="#000000" d="M249.79726 38.016V34.516"/>
<text xml:space="preserve" transform="matrix(1 0 -0 1 243.43788 322.17778)" font-size="10" font-family="DejaVuSans"><tspan y="0" x="0 6.3600008">20</tspan></text>
<path transform="matrix(1,0,0,-1,0,345.6)" d="M293.7884 38.016V34.516"/>
<path transform="matrix(1,0,0,-1,0,345.6)" stroke-width=".8" stroke-linecap="butt" stroke-linejoin="round" fill="none" stroke="#000000" d="M293.7884 38.016V34.516"/>
<text xml:space="preserve" transform="matrix(1 0 -0 1 287.42903 322.17778)" font-size="10" font-family="DejaVuSans"><tspan y="0" x="0 6.3600008">25</tspan></text>
<path transform="matrix(1,0,0,-1,0,345.6)" d="M337.7795 38.016V34.516"/>
<path transform="matrix(1,0,0,-1,0,345.6)" stroke-width=".8" stroke-linecap="butt" stroke-linejoin="round" fill="none" stroke="#000000" d="M337.7795 38.016V34.516"/>
<text xml:space="preserve" transform="matrix(1 0 -0 1 331.42015 322.17778)" font-size="10" font-family="DejaVuSans"><tspan y="0" x="0 6.3600008">30</tspan></text>
<path transform="matrix(1,0,0,-1,0,345.6)" d="M381.77064 38.016V34.516"/>
<path transform="matrix(1,0,0,-1,0,345.6)" stroke-width=".8" stroke-linecap="butt" stroke-linejoin="round" fill="none" stroke="#000000" d="M381.77064 38.016V34.516"/>
<text xml:space="preserve" transform="matrix(1 0 -0 1 375.41127 322.17778)" font-size="10" font-family="DejaVuSans"><tspan y="0" x="0 6.3600008">35</tspan></text>
<text xml:space="preserve" transform="matrix(1 0 -0 1 210.90219 335.84965)" font-size="10" font-family="DejaVuSans"><tspan y="0" x="0 5.813125 8.593125 18.333127 24.483126 27.663126 31.563126 41.303129 46.513128">Time (ms)</tspan></text>
<path transform="matrix(1,0,0,-1,0,345.6)" d="M57.6 69.37512H54.1"/>
<path transform="matrix(1,0,0,-1,0,345.6)" stroke-width=".8" stroke-linecap="butt" stroke-linejoin="round" fill="none" stroke="#000000" d="M57.6 69.37512H54.1"/>
<text xml:space="preserve" transform="matrix(1 0 -0 1 29.50625 280.02177)" font-size="10" font-family="DejaVuSans"><tspan y="0" x="8.378906 14.738907">80</tspan></text>
<g clip-path="url(#clip_0)">
<path transform="matrix(.01,0,0,-.01,29.50625,280.02177)" d="M106 355H732V272H106V355Z"/>
</g>
<path transform="matrix(1,0,0,-1,0,345.6)" d="M57.6 107.90137H54.1"/>
<path transform="matrix(1,0,0,-1,0,345.6)" stroke-width=".8" stroke-linecap="butt" stroke-linejoin="round" fill="none" stroke="#000000" d="M57.6 107.90137H54.1"/>
<text xml:space="preserve" transform="matrix(1 0 -0 1 29.50625 241.49552)" font-size="10" font-family="DejaVuSans"><tspan y="0" x="8.378906 14.738907">60</tspan></text>
<g clip-path="url(#clip_1)">
<path transform="matrix(.01,0,0,-.01,29.50625,241.49552)" d="M106 355H732V272H106V355Z"/>
</g>
<path transform="matrix(1,0,0,-1,0,345.6)" d="M57.6 146.42761H54.1"/>
<path transform="matrix(1,0,0,-1,0,345.6)" stroke-width=".8" stroke-linecap="butt" stroke-linejoin="round" fill="none" stroke="#000000" d="M57.6 146.42761H54.1"/>
<text xml:space="preserve" transform="matrix(1 0 -0 1 29.50625 202.96927)" font-size="10" font-family="DejaVuSans"><tspan y="0" x="8.378906 14.738907">40</tspan></text>
<g clip-path="url(#clip_2)">
<path transform="matrix(.01,0,0,-.01,29.50625,202.96927)" d="M106 355H732V272H106V355Z"/>
</g>
<path transform="matrix(1,0,0,-1,0,345.6)" d="M57.6 184.95386H54.1"/>
<path transform="matrix(1,0,0,-1,0,345.6)" stroke-width=".8" stroke-linecap="butt" stroke-linejoin="round" fill="none" stroke="#000000" d="M57.6 184.95386H54.1"/>
<text xml:space="preserve" transform="matrix(1 0 -0 1 29.50625 164.44303)" font-size="10" font-family="DejaVuSans"><tspan y="0" x="8.378906 14.738907">20</tspan></text>
<g clip-path="url(#clip_3)">
<path transform="matrix(.01,0,0,-.01,29.50625,164.44303)" d="M106 355H732V272H106V355Z"/>
</g>
<path transform="matrix(1,0,0,-1,0,345.6)" d="M57.6 223.4801H54.1"/>
<path transform="matrix(1,0,0,-1,0,345.6)" stroke-width=".8" stroke-linecap="butt" stroke-linejoin="round" fill="none" stroke="#000000" d="M57.6 223.4801H54.1"/>
<text xml:space="preserve" transform="matrix(1 0 -0 1 44.240625 125.91678)" font-size="10" font-family="DejaVuSans"><tspan y="0" x="0">0</tspan></text>
<path transform="matrix(1,0,0,-1,0,345.6)" d="M57.6 262.00636H54.1"/>
<path transform="matrix(1,0,0,-1,0,345.6)" stroke-width=".8" stroke-linecap="butt" stroke-linejoin="round" fill="none" stroke="#000000" d="M57.6 262.00636H54.1"/>
<text xml:space="preserve" transform="matrix(1 0 -0 1 37.88125 87.39053)" font-size="10" font-family="DejaVuSans"><tspan y="0" x="0 6.3600008">20</tspan></text>
<path transform="matrix(1,0,0,-1,0,345.6)" d="M57.6 300.5326H54.1"/>
<path transform="matrix(1,0,0,-1,0,345.6)" stroke-width=".8" stroke-linecap="butt" stroke-linejoin="round" fill="none" stroke="#000000" d="M57.6 300.5326H54.1"/>
<text xml:space="preserve" transform="matrix(1 0 -0 1 37.88125 48.86429)" font-size="10" font-family="DejaVuSans"><tspan y="0" x="0 6.3600008">40</tspan></text>
<text xml:space="preserve" transform="matrix(0 -1 1 0 23.428126 190.153)" font-size="10" font-family="DejaVuSans"><tspan y="0" x="0 6.84 10.74 20.48 27.32">V(mV)</tspan></text>
<g clip-path="url(#clip_4)">
<path transform="matrix(1,0,0,-1,0,345.6)" stroke-width="1.5" stroke-linecap="square" stroke-linejoin="round" fill="none" stroke="#1f77b4" d="M73.832729 87.326038 160.93517 87.17685 170.61322 89.17416 178.53162 90.67448 199.64736 89.80605 240.1192 87.95486 258.5955 87.38964 277.95158 87.022357 300.82698 86.82241 330.74095 86.802509 394.968 87.05701 398.48728 87.07053"/>
</g>
<g clip-path="url(#clip_5)">
<path transform="matrix(1,0,0,-1,0,345.6)" stroke-width="1.5" stroke-linecap="square" stroke-linejoin="round" fill="none" stroke="#ff7f0e" d="M73.832729 87.326038 160.93517 87.17685 167.97374 90.123798 176.77198 93.574428 178.53162 94.24155 193.4886 93.266559 203.16666 92.31128 237.47974 88.704959 248.91744 87.85127 260.35514 87.2207 272.67265 86.759098 286.7498 86.451129 304.34626 86.302768 327.22166 86.35174 368.5733 86.71156 398.48728 86.973598"/>
</g>
<g clip-path="url(#clip_6)">
<path transform="matrix(1,0,0,-1,0,345.6)" stroke-width="1.5" stroke-linecap="square" stroke-linejoin="round" fill="none" stroke="#2ca02c" d="M73.832729 87.326038 160.93517 87.17685 166.2141 91.63932 178.53162 101.75041 181.17108 101.86493 190.84914 102.58451 195.24825 102.61993 198.76753 102.44615 202.28684 102.05902 205.80612 101.43507 209.32541 100.566287 212.8447 99.46781 217.24382 97.83733 233.96045 91.24617 238.35956 89.862 242.75867 88.688068 248.0376 87.53926 253.31655 86.63866 259.4753 85.847339 265.63407 85.27925 272.67265 84.84096 281.47087 84.52818 292.02876 84.39468 305.22608 84.46794 322.82255 84.801509 358.01545 85.7494 394.08818 86.62947 398.48728 86.7163"/>
</g>
<g clip-path="url(#clip_7)">
<path transform="matrix(1,0,0,-1,0,345.6)" stroke-width="1.5" stroke-linecap="square" stroke-linejoin="round" fill="none" stroke="#d62728" d="M73.832729 87.326038 160.93517 87.17685 165.33428 94.65195 171.49304 104.991809 174.1325 109.948558 175.89215 113.82641 176.77198 116.07308 177.6518 118.62928 178.53162 121.617908 179.41144 123.71331 180.29126 126.79101 181.17108 131.04906 182.0509 136.91365 182.93073 145.17816 183.81055 157.24515 184.69039 175.4532 185.5702 202.91017 187.32985 274.5805 188.20967 289.0221 189.0895 290.1236 189.96932 287.56559 190.84914 283.24964 191.72896 277.5311 192.60878 270.6424 194.36843 254.36698 201.40702 184.04831 207.56577 127.75932 211.08506 89.48941 211.96488 82.76468 212.8447 78.7241 213.72452 76.750659 214.60434 75.904499 215.48416 75.559688 217.24382 75.36609 221.64293 75.35949 239.23938 75.65315 255.07619 76.128818 270.913 76.83038 288.50947 77.84587 311.38484 79.41425 377.37153 84.08483 398.48728 85.304828"/>
</g>
<g clip-path="url(#clip_8)">
<path transform="matrix(1,0,0,-1,0,345.6)" stroke-width="1.5" stroke-linecap="square" stroke-linejoin="round" fill="none" stroke="#9467bd" d="M73.832729 87.326038 160.93517 87.17685 165.33428 96.52294 170.61322 107.71027 172.37287 111.88899 174.1325 116.77238 175.01233 119.68158 175.89215 123.089809 176.77198 127.23118 177.6518 132.47768 178.53162 139.44344 179.41144 147.33394 180.29126 160.06652 181.17108 179.86064 182.0509 209.67905 182.93073 248.34137 183.81055 280.15248 184.69039 290.60633 185.5702 290.5056 186.45003 287.60804 187.32985 283.1098 188.20967 277.2713 189.96932 262.45396 192.60878 236.02495 196.12807 200.42794 198.76753 175.81583 203.16666 136.3111 204.9263 118.11441 207.56577 89.269779 208.44559 82.61156 209.32541 78.638248 210.20523 76.70941 211.08506 75.88588 211.96488 75.55125 213.72452 75.36409 218.12364 75.35917 235.7201 75.652599 251.5569 76.12793 267.3937 76.82918 284.99015 77.844379 307.86555 79.412578 373.85224 84.08342 395.8478 85.34978 398.48728 85.48562"/>
</g>
<g clip-path="url(#clip_9)">
<path transform="matrix(1,0,0,-1,0,345.6)" stroke-width="1.5" stroke-linecap="square" stroke-linejoin="round" fill="none" stroke="#8c564b" d="M73.832729 87.326038 160.93517 87.17685 165.33428 101.2044 168.85358 112.521259 170.61322 119.02706 171.49304 122.864368 172.37287 127.3986 173.25269 133.03539 174.1325 140.4489 175.01233 150.79648 175.89215 166.07762 176.77198 189.45664 177.6518 223.92844 178.53162 264.11018 179.41144 287.35725 180.29126 292.032 181.17108 290.58335 182.0509 287.1891 182.93073 282.35908 183.81055 276.2747 185.5702 261.17607 188.20967 234.70688 191.72896 199.32048 194.36843 174.85102 198.76753 135.31026 200.52719 116.95593 202.28684 97.025157 203.16666 88.31457 204.04648 81.97547 204.9263 78.29988 205.80612 76.5557 206.68595 75.820468 207.56577 75.52353 209.32541 75.358829 214.60434 75.36872 232.20079 75.67404 248.0376 76.16213 263.87443 76.876079 281.47087 77.9024 304.34626 79.4785 368.5733 84.03029 390.56889 85.30544 398.48728 85.705249"/>
</g>
<g clip-path="url(#clip_10)">
<path transform="matrix(1,0,0,-1,0,345.6)" stroke-width="1.5" stroke-linecap="square" stroke-linejoin="round" fill="none" stroke="#e377c2" d="M73.832729 50.112H160.93517L161.81499 69.37512H178.53162L179.41144 50.112H398.48728"/>
</g>
<path transform="matrix(1,0,0,-1,0,345.6)" stroke-width=".8" stroke-linecap="square" stroke-miterlimit="10" stroke-linejoin="miter" fill="none" stroke="#000000" d="M57.6 38.016V304.128"/>
<path transform="matrix(1,0,0,-1,0,345.6)" stroke-width=".8" stroke-linecap="square" stroke-miterlimit="10" stroke-linejoin="miter" fill="none" stroke="#000000" d="M414.72 38.016V304.128"/>
<path transform="matrix(1,0,0,-1,0,345.6)" stroke-width=".8" stroke-linecap="square" stroke-miterlimit="10" stroke-linejoin="miter" fill="none" stroke="#000000" d="M57.6 38.016H414.72"/>
<path transform="matrix(1,0,0,-1,0,345.6)" stroke-width=".8" stroke-linecap="square" stroke-miterlimit="10" stroke-linejoin="miter" fill="none" stroke="#000000" d="M57.6 304.128H414.72"/>
</svg>
