<svg xmlns="http://www.w3.org/2000/svg" xmlns:xlink="http://www.w3.org/1999/xlink" version="1.1" width="460.8" height="345.6" viewBox="0 0 460.8 345.6">
<defs>
<clipPath id="clip_0">
<path transform="matrix(.01,0,0,-.01,29.50625,276.46186)" d="M-1021-463H1794V1233H-1021Z"/>
</clipPath>
<clipPath id="clip_1">
<path transform="matrix(.01,0,0,-.01,29.50625,230.81577)" d="M-1021-463H1794V1233H-1021Z"/>
</clipPath>
<clipPath id="clip_2">
<path transform="matrix(.01,0,0,-.01,29.50625,185.16968)" d="M-1021-463H1794V1233H-1021Z"/>
</clipPath>
<clipPath id="clip_3">
<path transform="matrix(.01,0,0,-.01,29.50625,139.5236)" d="M-1021-463H1794V1233H-1021Z"/>
</clipPath>
<clipPath id="clip_4">
<path transform="matrix(1,0,0,-1,0,345.6)" d="M57.6 38.016H414.72V304.128H57.6Z"/>
</clipPath>
<clipPath id="clip_5">
<path transform="matrix(1,0,0,-1,0,345.6)" d="M57.6 38.016H414.72V304.128H57.6Z"/>
</clipPath>
<clipPath id="clip_6">
<path transform="matrix(1,0,0,-1,0,345.6)" d="M57.6 38.016H414.72V304.128H57.6Z"/>
</clipPath>
<clipPath id="clip_7">
<path transform="matrix(1,0,0,-1,0,345.6)" d="M57.6 38.016H414.72V304.128H57.6Z"/>
</clipPath>
<clipPath id="clip_8">
<path transform="matrix(1,0,0,-1,0,345.6)" d="M57.6 38.016H414.72V304.128H57.6Z"/>
</clipPath>
<clipPath id="clip_9">
<path transform="matrix(1,0,0,-1,0,345.6)" d="M57.6 38.016H414.72V304.128H57.6Z"/>
</clipPath>
<clipPath id="clip_10">
<path transform="matrix(1,0,0,-1,0,345.6)" d="M57.6 38.016H414.72V304.128H57.6Z"/>
</clipPath>
</defs>
<path transform="matrix(1,0,0,-1,0,345.6)" d="M0 0H460.8V345.6H0Z" fill="#ffffff"/>
<path transform="matrix(1,0,0,-1,0,345.6)" d="M57.6 38.016H414.72V304.128H57.6Z" fill="#ffffff"/>
<path transform="matrix(1,0,0,-1,0,345.6)" d="M73.832729 38.016V34.516"/>
<path transform="matrix(1,0,0,-1,0,345.6)" stroke-width=".8" stroke-linecap="butt" stroke-linejoin="round" fill="none" stroke="#000000" d="M73.832729 38.016V34.516"/>
<text xml:space="preserve" transform="matrix(1 0 -0 1 70.65304 322.17778)" font-size="10" font-family="DejaVuSans"><tspan y="0" x="0">0</tspan></text>
<path transform="matrix(1,0,0,-1,0,345.6)" d="M117.82386 38.016V34.516"/>
<path transform="matrix(1,0,0,-1,0,345.6)" stroke-width=".8" stroke-linecap="butt" stroke-linejoin="round" fill="none" stroke="#000000" d="M117.82386 38.016V34.516"/>
<text xml:space="preserve" transform="matrix(1 0 -0 1 114.64417 322.17778)" font-size="10" font-family="DejaVuSans"><tspan y="0" x="0">5</tspan></text>
<path transform="matrix(1,0,0,-1,0,345.6)" d="M161.81499 38.016V34.516"/>
<path transform="matrix(1,0,0,-1,0,345.6)" stroke-width=".8" stroke-linecap="butt" stroke-linejoin="round" fill="none" stroke="#000000" d="M161.81499 38.016V34.516"/>
<text xml:space="preserve" transform="matrix(1 0 -0 1 155.45561 322.17778)" font-size="10" font-family="DejaVuSans"><tspan y="0" x="0 6.3600008">10</tspan></text>
<path transform="matrix(1,0,0,-1,0,345.6)" d="M205.80612 38.016V34.516"/>
<path transform="matrix(1,0,0,-1,0,345.6)" stroke-width=".8" stroke-linecap="butt" stroke-linejoin="round" fill="none" stroke="#000000" d="M205.80612 38.016V34.516"/>
<text xml:space="preserve" transform="matrix(1 0 -0 1 199.44675 322.17778)" font-size="10" font-family="DejaVuSans"><tspan y="0" x="0 6.3600008">15</tspan></text>
<path transform="matrix(1,0,0,-1,0,345.6)" d="M249.79726 38.016V34.516"/>
<path transform="matrix(1,0,0,-1,0,345.6)" stroke-width=".8" stroke-linecap="butt" stroke-linejoin="round" fill="none" stroke="#000000" d="M249.79726 38.016V34.516"/>
<text xml:space="preserve" transform="matrix(1 0 -0 1 243.43788 322.17778)" font-size="10" font-family="DejaVuSans"><tspan y="0" x="0 6.3600008">20</tspan></text>
<path transform="matrix(1,0,0,-1,0,345.6)" d="M293.7884 38.016V34.516"/>
<path transform="matrix(1,0,0,-1,0,345.6)" stroke-width=".8" stroke-linecap="butt" stroke-linejoin="round" fill="none" stroke="#000000" d="M293.7884 38.016V34.516"/>
<text xml:space="preserve" transform="matrix(1 0 -0 1 287.42903 322.17778)" font-size="10" font-family="DejaVuSans"><tspan y="0" x="0 6.3600008">25</tspan></text>
<path transform="matrix(1,0,0,-1,0,345.6)" d="M337.7795 38.016V34.516"/>
<path transform="matrix(1,0,0,-1,0,345.6)" stroke-width=".8" stroke-linecap="butt" stroke-linejoin="round" fill="none" stroke="#000000" d="M337.7795 38.016V34.516"/>
<text xml:space="preserve" transform="matrix(1 0 -0 1 331.42015 322.17778)" font-size="10" font-family="DejaVuSans"><tspan y="0" x="0 6.3600008">30</tspan></text>
<path transform="matrix(1,0,0,-1,0,345.6)" d="M381.77064 38.016V34.516"/>
<path transform="matrix(1,0,0,-1,0,345.6)" stroke-width=".8" stroke-linecap="butt" stroke-linejoin="round" fill="none" stroke="#000000" d="M381.77064 38.016V34.516"/>
<text xml:space="preserve" transform="matrix(1 0 -0 1 375.41127 322.17778)" font-size="10" font-family="DejaVuSans"><tspan y="0" x="0 6.3600008">35</tspan></text>
<text xml:space="preserve" transform="matrix(1 0 -0 1 210.90219 335.84965)" font-size="10" font-family="DejaVuSans"><tspan y="0" x="0 5.813125 8.593125 18.333127 24.483126 27.663126 31.563126 41.303129 46.513128">Time (ms)</tspan></text>
<path transform="matrix(1,0,0,-1,0,345.6)" d="M57.6 72.935039H54.1"/>
<path transform="matrix(1,0,0,-1,0,345.6)" stroke-width=".8" stroke-linecap="butt" stroke-linejoin="round" fill="none" stroke="#000000" d="M57.6 72.935039H54.1"/>
<text xml:space="preserve" transform="matrix(1 0 -0 1 29.50625 276.46186)" font-size="10" font-family="DejaVuSans"><tspan y="0" x="8.378906 14.738907">80</tspan></text>
<g clip-path="url(#clip_0)">
<path transform="matrix(.01,0,0,-.01,29.50625,276.46186)" d="M106 355H732V272H106V355Z"/>
</g>
<path transform="matrix(1,0,0,-1,0,345.6)" d="M57.6 118.581119H54.1"/>
<path transform="matrix(1,0,0,-1,0,345.6)" stroke-width=".8" stroke-linecap="butt" stroke-linejoin="round" fill="none" stroke="#000000" d="M57.6 118.581119H54.1"/>
<text xml:space="preserve" transform="matrix(1 0 -0 1 29.50625 230.81577)" font-size="10" font-family="DejaVuSans"><tspan y="0" x="8.378906 14.738907">60</tspan></text>
<g clip-path="url(#clip_1)">
<path transform="matrix(.01,0,0,-.01,29.50625,230.81577)" d="M106 355H732V272H106V355Z"/>
</g>
<path transform="matrix(1,0,0,-1,0,345.6)" d="M57.6 164.2272H54.1"/>
<path transform="matrix(1,0,0,-1,0,345.6)" stroke-width=".8" stroke-linecap="butt" stroke-linejoin="round" fill="none" stroke="#000000" d="M57.6 164.2272H54.1"/>
<text xml:space="preserve" transform="matrix(1 0 -0 1 29.50625 185.16968)" font-size="10" font-family="DejaVuSans"><tspan y="0" x="8.378906 14.738907">40</tspan></text>
<g clip-path="url(#clip_2)">
<path transform="matrix(.01,0,0,-.01,29.50625,185.16968)" d="M106 355H732V272H106V355Z"/>
</g>
<path transform="matrix(1,0,0,-1,0,345.6)" d="M57.6 209.87328H54.1"/>
<path transform="matrix(1,0,0,-1,0,345.6)" stroke-width=".8" stroke-linecap="butt" stroke-linejoin="round" fill="none" stroke="#000000" d="M57.6 209.87328H54.1"/>
<text xml:space="preserve" transform="matrix(1 0 -0 1 29.50625 139.5236)" font-size="10" font-family="DejaVuSans"><tspan y="0" x="8.378906 14.738907">20</tspan></text>
<g clip-path="url(#clip_3)">
<path transform="matrix(.01,0,0,-.01,29.50625,139.5236)" d="M106 355H732V272H106V355Z"/>
</g>
<path transform="matrix(1,0,0,-1,0,345.6)" d="M57.6 255.51935H54.1"/>
<path transform="matrix(1,0,0,-1,0,345.6)" stroke-width=".8" stroke-linecap="butt" stroke-linejoin="round" fill="none" stroke="#000000" d="M57.6 255.51935H54.1"/>
<text xml:space="preserve" transform="matrix(1 0 -0 1 44.240625 93.87753)" font-size="10" font-family="DejaVuSans"><tspan y="0" x="0">0</tspan></text>
<path transform="matrix(1,0,0,-1,0,345.6)" d="M57.6 301.16545H54.1"/>
<path transform="matrix(1,0,0,-1,0,345.6)" stroke-width=".8" stroke-linecap="butt" stroke-linejoin="round" fill="none" stroke="#000000" d="M57.6 301.16545H54.1"/>
<text xml:space="preserve" transform="matrix(1 0 -0 1 37.88125 48.231447)" font-size="10" font-family="DejaVuSans"><tspan y="0" x="0 6.3600008">20</tspan></text>
<text xml:space="preserve" transform="matrix(0 -1 1 0 23.428126 190.153)" font-size="10" font-family="DejaVuSans"><tspan y="0" x="0 6.84 10.74 20.48 27.32">V(mV)</tspan></text>
<g clip-path="url(#clip_4)">
<path transform="matrix(1,0,0,-1,0,345.6)" stroke-width="1.5" stroke-linecap="square" stroke-linejoin="round" fill="none" stroke="#1f77b4" d="M73.832729 94.19546 115.18439 93.80585 157.41588 93.64624 160.93517 93.64135 169.7334 95.791667 178.53162 97.74035 201.40702 96.516887 229.56133 94.976657 247.15778 94.260059 264.75425 93.77205 284.11033 93.46205 307.86555 93.316608 341.2988 93.35828 398.48728 93.59982"/>
</g>
<g clip-path="url(#clip_5)">
<path transform="matrix(1,0,0,-1,0,345.6)" stroke-width="1.5" stroke-linecap="square" stroke-linejoin="round" fill="none" stroke="#ff7f0e" d="M73.832729 94.19546 115.18439 93.80585 157.41588 93.64624 160.93517 93.64135 167.09392 96.70219 174.1325 99.96865 178.53162 101.90016 192.60878 100.57357 204.04648 99.154567 224.2824 96.60797 234.84027 95.50802 245.39813 94.62652 256.83586 93.91079 269.15336 93.38169 283.2305 93.02089 299.94715 92.837207 321.0629 92.84563 355.37599 93.11852 398.48728 93.50428"/>
</g>
<g clip-path="url(#clip_6)">
<path transform="matrix(1,0,0,-1,0,345.6)" stroke-width="1.5" stroke-linecap="square" stroke-linejoin="round" fill="none" stroke="#2ca02c" d="M73.832729 94.19546 115.18439 93.80585 157.41588 93.64624 160.93517 93.64135 166.2141 98.920909 173.25269 105.58744 178.53162 110.52158 181.17108 110.39118 186.45003 110.20632 189.96932 109.88772 193.4886 109.36686 197.00789 108.63924 200.52719 107.71651 204.9263 106.33125 211.08506 104.109439 222.52275 99.912868 227.80168 98.21705 233.08063 96.74906 238.35956 95.514339 243.63849 94.498058 249.79726 93.556278 255.95601 92.83708 262.9946 92.23717 270.913 91.78529 280.59104 91.473628 292.02876 91.347 306.1059 91.424938 326.34184 91.78501 398.48728 93.348697"/>
</g>
<g clip-path="url(#clip_7)">
<path transform="matrix(1,0,0,-1,0,345.6)" stroke-width="1.5" stroke-linecap="square" stroke-linejoin="round" fill="none" stroke="#d62728" d="M73.832729 94.19546 115.18439 93.80585 157.41588 93.64624 160.93517 93.64135 165.33428 102.49069 173.25269 118.10559 175.01233 121.96794 176.77198 126.318798 178.53162 131.55017 179.41144 132.91287 180.29126 134.9009 181.17108 137.53795 182.0509 140.92589 182.93073 145.27129 183.81055 150.92649 184.69039 158.46105 185.5702 168.77297 186.45003 183.20766 187.32985 203.44922 189.96932 281.2789 190.84914 288.97843 191.72896 289.44889 192.60878 287.4891 193.4886 284.19709 194.36843 279.81278 195.24825 274.45619 197.00789 261.32139 198.76753 245.91175 203.16666 203.97843 207.56577 161.6766 209.32541 142.86841 211.08506 121.45166 212.8447 99.92355 213.72452 91.63396 214.60434 86.106418 215.48416 83.00934 216.364 81.461589 217.24382 80.72307 218.12364 80.37278 219.88329 80.127178 223.40258 80.083179 235.7201 80.3208 250.67708 80.814067 264.75425 81.494518 279.7112 82.43457 298.1875 83.831829 328.10148 86.36362 362.41456 89.20746 384.41014 90.80094 398.48728 91.68116"/>
</g>
<g clip-path="url(#clip_8)">
<path transform="matrix(1,0,0,-1,0,345.6)" stroke-width="1.5" stroke-linecap="square" stroke-linejoin="round" fill="none" stroke="#9467bd" d="M73.832729 94.19546 115.18439 93.80585 157.41588 93.64624 160.93517 93.64135 165.33428 104.705577 171.49304 119.97569 173.25269 124.836719 175.01233 130.44962 175.89215 133.74384 176.77198 137.5456 177.6518 142.07305 179.41144 152.60619 180.29126 160.16335 181.17108 171.07848 182.0509 186.68393 182.93073 208.65872 184.69039 266.84327 185.5702 285.42008 186.45003 290.6366 187.32985 290.27394 188.20967 288.03825 189.0895 284.61405 189.96932 280.15519 190.84914 274.7564 192.60878 261.5943 194.36843 246.19658 198.76753 204.31784 204.04648 152.9759 205.80612 132.93547 208.44559 100.307819 209.32541 91.90422 210.20523 86.26078 211.08506 83.0834 211.96488 81.493457 212.8447 80.73583 213.72452 80.37737 215.48416 80.12684 219.00347 80.08169 231.32097 80.31841 246.27796 80.81027 260.35514 81.48931 275.3121 82.428058 293.7884 83.82429 323.70237 86.355648 358.01545 89.20037 380.011 90.7949 398.48728 91.92591"/>
</g>
<g clip-path="url(#clip_9)">
<path transform="matrix(1,0,0,-1,0,345.6)" stroke-width="1.5" stroke-linecap="square" stroke-linejoin="round" fill="none" stroke="#8c564b" d="M73.832729 94.19546 115.18439 93.80585 157.41588 93.64624 160.93517 93.64135 165.33428 110.24586 169.7334 126.898448 171.49304 134.69344 172.37287 139.30976 173.25269 144.759 174.1325 151.48958 175.01233 160.20915 175.89215 172.0388 176.77198 188.66869 177.6518 212.11945 179.41144 270.85536 180.29126 287.96876 181.17108 292.032 182.0509 291.34465 182.93073 289.06883 183.81055 285.6967 184.69039 281.33125 185.5702 276.0442 187.32985 263.1063 189.0895 247.88187 192.60878 214.57624 198.76753 155.06282 200.52719 135.31783 203.16666 102.46905 204.04648 93.511 204.9263 87.24242 205.80612 83.59226 206.68595 81.734218 207.56577 80.84619 208.44559 80.42752 210.20523 80.13604 212.8447 80.074169 222.52275 80.228588 237.47974 80.66369 251.5569 81.28575 266.5139 82.17115 284.11033 83.45241 308.74537 85.49896 353.61634 89.24753 375.61189 90.83549 394.968 92.00772 398.48728 92.19513"/>
</g>
<g clip-path="url(#clip_10)">
<path transform="matrix(1,0,0,-1,0,345.6)" stroke-width="1.5" stroke-linecap="square" stroke-linejoin="round" fill="none" stroke="#e377c2" d="M73.832729 50.112H160.93517L161.81499 72.935039H178.53162L179.41144 50.112H398.48728"/>
</g>
<path transform="matrix(1,0,0,-1,0,345.6)" stroke-width=".8" stroke-linecap="square" stroke-miterlimit="10" stroke-linejoin="miter" fill="none" stroke="#000000" d="M57.6 38.016V304.128"/>
<path transform="matrix(1,0,0,-1,0,345.6)" stroke-width=".8" stroke-linecap="square" stroke-miterlimit="10" stroke-linejoin="miter" fill="none" stroke="#000000" d="M414.72 38.016V304.128"/>
<path transform="matrix(1,0,0,-1,0,345.6)" stroke-width=".8" stroke-linecap="square" stroke-miterlimit="10" stroke-linejoin="miter" fill="none" stroke="#000000" d="M57.6 38.016H414.72"/>
<path transform="matrix(1,0,0,-1,0,345.6)" stroke-width=".8" stroke-linecap="square" stroke-miterlimit="10" stroke-linejoin="miter" fill="none" stroke="#000000" d="M57.6 304.128H414.72"/>
</svg>
