<svg xmlns="http://www.w3.org/2000/svg" xmlns:xlink="http://www.w3.org/1999/xlink" version="1.1" width="460.8" height="345.6" viewBox="0 0 460.8 345.6">
<defs>
<clipPath id="clip_0">
<path transform="matrix(.01,0,0,-.01,29.50625,283.64637)" d="M-1021-463H1794V1233H-1021Z"/>
</clipPath>
<clipPath id="clip_1">
<path transform="matrix(.01,0,0,-.01,29.50625,252.36937)" d="M-1021-463H1794V1233H-1021Z"/>
</clipPath>
<clipPath id="clip_2">
<path transform="matrix(.01,0,0,-.01,29.50625,221.09236)" d="M-1021-463H1794V1233H-1021Z"/>
</clipPath>
<clipPath id="clip_3">
<path transform="matrix(.01,0,0,-.01,29.50625,189.81536)" d="M-1021-463H1794V1233H-1021Z"/>
</clipPath>
<clipPath id="clip_4">
<path transform="matrix(1,0,0,-1,0,345.6)" d="M57.6 38.016H414.72V304.128H57.6Z"/>
</clipPath>
<clipPath id="clip_5">
<path transform="matrix(1,0,0,-1,0,345.6)" d="M57.6 38.016H414.72V304.128H57.6Z"/>
</clipPath>
<clipPath id="clip_6">
<path transform="matrix(1,0,0,-1,0,345.6)" d="M57.6 38.016H414.72V304.128H57.6Z"/>
</clipPath>
<clipPath id="clip_7">
<path transform="matrix(1,0,0,-1,0,345.6)" d="M57.6 38.016H414.72V304.128H57.6Z"/>
</clipPath>
<clipPath id="clip_8">
<path transform="matrix(1,0,0,-1,0,345.6)" d="M57.6 38.016H414.72V304.128H57.6Z"/>
</clipPath>
<clipPath id="clip_9">
<path transform="matrix(1,0,0,-1,0,345.6)" d="M57.6 38.016H414.72V304.128H57.6Z"/>
</clipPath>
<clipPath id="clip_10">
<path transform="matrix(1,0,0,-1,0,345.6)" d="M57.6 38.016H414.72V304.128H57.6Z"/>
</clipPath>
</defs>
<path transform="matrix(1,0,0,-1,0,345.6)" d="M0 0H460.8V345.6H0Z" fill="#ffffff"/>
<path transform="matrix(1,0,0,-1,0,345.6)" d="M57.6 38.016H414.72V304.128H57.6Z" fill="#ffffff"/>
<path transform="matrix(1,0,0,-1,0,345.6)" d="M73.832729 38.016V34.516"/>
<path transform="matrix(1,0,0,-1,0,345.6)" stroke-width=".8" stroke-linecap="butt" stroke-linejoin="round" fill="none" stroke="#000000" d="M73.832729 38.016V34.516"/>
<text xml:space="preserve" transform="matrix(1 0 -0 1 70.65304 322.17778)" font-size="10" font-family="DejaVuSans"><tspan y="0" x="0">0</tspan></text>
<path transform="matrix(1,0,0,-1,0,345.6)" d="M117.82386 38.016V34.516"/>
<path transform="matrix(1,0,0,-1,0,345.6)" stroke-width=".8" stroke-linecap="butt" stroke-linejoin="round" fill="none" stroke="#000000" d="M117.82386 38.016V34.516"/>
<text xml:space="preserve" transform="matrix(1 0 -0 1 114.64417 322.17778)" font-size="10" font-family="DejaVuSans"><tspan y="0" x="0">5</tspan></text>
<path transform="matrix(1,0,0,-1,0,345.6)" d="M161.81499 38.016V34.516"/>
<path transform="matrix(1,0,0,-1,0,345.6)" stroke-width=".8" stroke-linecap="butt" stroke-linejoin="round" fill="none" stroke="#000000" d="M161.81499 38.016V34.516"/>
<text xml:space="preserve" transform="matrix(1 0 -0 1 155.45561 322.17778)" font-size="10" font-family="DejaVuSans"><tspan y="0" x="0 6.3600008">10</tspan></text>
<path transform="matrix(1,0,0,-1,0,345.6)" d="M205.80612 38.016V34.516"/>
<path transform="matrix(1,0,0,-1,0,345.6)" stroke-width=".8" stroke-linecap="butt" stroke-linejoin="round" fill="none" stroke="#000000" d="M205.80612 38.016V34.516"/>
<text xml:space="preserve" transform="matrix(1 0 -0 1 199.44675 322.17778)" font-size="10" font-family="DejaVuSans"><tspan y="0" x="0 6.3600008">15</tspan></text>
<path transform="matrix(1,0,0,-1,0,345.6)" d="M249.79726 38.016V34.516"/>
<path transform="matrix(1,0,0,-1,0,345.6)" stroke-width=".8" stroke-linecap="butt" stroke-linejoin="round" fill="none" stroke="#000000" d="M249.79726 38.016V34.516"/>
<text xml:space="preserve" transform="matrix(1 0 -0 1 243.43788 322.17778)" font-size="10" font-family="DejaVuSans"><tspan y="0" x="0 6.3600008">20</tspan></text>
<path transform="matrix(1,0,0,-1,0,345.6)" d="M293.7884 38.016V34.516"/>
<path transform="matrix(1,0,0,-1,0,345.6)" stroke-width=".8" stroke-linecap="butt" stroke-linejoin="round" fill="none" stroke="#000000" d="M293.7884 38.016V34.516"/>
<text xml:space="preserve" transform="matrix(1 0 -0 1 287.42903 322.17778)" font-size="10" font-family="DejaVuSans"><tspan y="0" x="0 6.3600008">25</tspan></text>
<path transform="matrix(1,0,0,-1,0,345.6)" d="M337.7795 38.016V34.516"/>
<path transform="matrix(1,0,0,-1,0,345.6)" stroke-width=".8" stroke-linecap="butt" stroke-linejoin="round" fill="none" stroke="#000000" d="M337.7795 38.016V34.516"/>
<text xml:space="preserve" transform="matrix(1 0 -0 1 331.42015 322.17778)" font-size="10" font-family="DejaVuSans"><tspan y="0" x="0 6.3600008">30</tspan></text>
<path transform="matrix(1,0,0,-1,0,345.6)" d="M381.77064 38.016V34.516"/>
<path transform="matrix(1,0,0,-1,0,345.6)" stroke-width=".8" stroke-linecap="butt" stroke-linejoin="round" fill="none" stroke="#000000" d="M381.77064 38.016V34.516"/>
<text xml:space="preserve" transform="matrix(1 0 -0 1 375.41127 322.17778)" font-size="10" font-family="DejaVuSans"><tspan y="0" x="0 6.3600008">35</tspan></text>
<text xml:space="preserve" transform="matrix(1 0 -0 1 210.90219 335.84965)" font-size="10" font-family="DejaVuSans"><tspan y="0" x="0 5.813125 8.593125 18.333127 24.483126 27.663126 31.563126 41.303129 46.513128">Time (ms)</tspan></text>
<path transform="matrix(1,0,0,-1,0,345.6)" d="M57.6 65.7505H54.1"/>
<path transform="matrix(1,0,0,-1,0,345.6)" stroke-width=".8" stroke-linecap="butt" stroke-linejoin="round" fill="none" stroke="#000000" d="M57.6 65.7505H54.1"/>
<text xml:space="preserve" transform="matrix(1 0 -0 1 29.50625 283.64637)" font-size="10" font-family="DejaVuSans"><tspan y="0" x="8.378906 14.738907">80</tspan></text>
<g clip-path="url(#clip_0)">
<path transform="matrix(.01,0,0,-.01,29.50625,283.64637)" d="M106 355H732V272H106V355Z"/>
</g>
<path transform="matrix(1,0,0,-1,0,345.6)" d="M57.6 97.02751H54.1"/>
<path transform="matrix(1,0,0,-1,0,345.6)" stroke-width=".8" stroke-linecap="butt" stroke-linejoin="round" fill="none" stroke="#000000" d="M57.6 97.02751H54.1"/>
<text xml:space="preserve" transform="matrix(1 0 -0 1 29.50625 252.36937)" font-size="10" font-family="DejaVuSans"><tspan y="0" x="8.378906 14.738907">60</tspan></text>
<g clip-path="url(#clip_1)">
<path transform="matrix(.01,0,0,-.01,29.50625,252.36937)" d="M106 355H732V272H106V355Z"/>
</g>
<path transform="matrix(1,0,0,-1,0,345.6)" d="M57.6 128.30452H54.1"/>
<path transform="matrix(1,0,0,-1,0,345.6)" stroke-width=".8" stroke-linecap="butt" stroke-linejoin="round" fill="none" stroke="#000000" d="M57.6 128.30452H54.1"/>
<text xml:space="preserve" transform="matrix(1 0 -0 1 29.50625 221.09236)" font-size="10" font-family="DejaVuSans"><tspan y="0" x="8.378906 14.738907">40</tspan></text>
<g clip-path="url(#clip_2)">
<path transform="matrix(.01,0,0,-.01,29.50625,221.09236)" d="M106 355H732V272H106V355Z"/>
</g>
<path transform="matrix(1,0,0,-1,0,345.6)" d="M57.6 159.58153H54.1"/>
<path transform="matrix(1,0,0,-1,0,345.6)" stroke-width=".8" stroke-linecap="butt" stroke-linejoin="round" fill="none" stroke="#000000" d="M57.6 159.58153H54.1"/>
<text xml:space="preserve" transform="matrix(1 0 -0 1 29.50625 189.81536)" font-size="10" font-family="DejaVuSans"><tspan y="0" x="8.378906 14.738907">20</tspan></text>
<g clip-path="url(#clip_3)">
<path transform="matrix(.01,0,0,-.01,29.50625,189.81536)" d="M106 355H732V272H106V355Z"/>
</g>
<path transform="matrix(1,0,0,-1,0,345.6)" d="M57.6 190.85854H54.1"/>
<path transform="matrix(1,0,0,-1,0,345.6)" stroke-width=".8" stroke-linecap="butt" stroke-linejoin="round" fill="none" stroke="#000000" d="M57.6 190.85854H54.1"/>
<text xml:space="preserve" transform="matrix(1 0 -0 1 44.240625 158.53835)" font-size="10" font-family="DejaVuSans"><tspan y="0" x="0">0</tspan></text>
<path transform="matrix(1,0,0,-1,0,345.6)" d="M57.6 222.13555H54.1"/>
<path transform="matrix(1,0,0,-1,0,345.6)" stroke-width=".8" stroke-linecap="butt" stroke-linejoin="round" fill="none" stroke="#000000" d="M57.6 222.13555H54.1"/>
<text xml:space="preserve" transform="matrix(1 0 -0 1 37.88125 127.26134)" font-size="10" font-family="DejaVuSans"><tspan y="0" x="0 6.3600008">20</tspan></text>
<path transform="matrix(1,0,0,-1,0,345.6)" d="M57.6 253.41255H54.1"/>
<path transform="matrix(1,0,0,-1,0,345.6)" stroke-width=".8" stroke-linecap="butt" stroke-linejoin="round" fill="none" stroke="#000000" d="M57.6 253.41255H54.1"/>
<text xml:space="preserve" transform="matrix(1 0 -0 1 37.88125 95.98433)" font-size="10" font-family="DejaVuSans"><tspan y="0" x="0 6.3600008">40</tspan></text>
<path transform="matrix(1,0,0,-1,0,345.6)" d="M57.6 284.68955H54.1"/>
<path transform="matrix(1,0,0,-1,0,345.6)" stroke-width=".8" stroke-linecap="butt" stroke-linejoin="round" fill="none" stroke="#000000" d="M57.6 284.68955H54.1"/>
<text xml:space="preserve" transform="matrix(1 0 -0 1 37.88125 64.70734)" font-size="10" font-family="DejaVuSans"><tspan y="0" x="0 6.3600008">60</tspan></text>
<text xml:space="preserve" transform="matrix(0 -1 1 0 23.428126 190.153)" font-size="10" font-family="DejaVuSans"><tspan y="0" x="0 6.84 10.74 20.48 27.32">V(mV)</tspan></text>
<g clip-path="url(#clip_4)">
<path transform="matrix(1,0,0,-1,0,345.6)" stroke-width="1.5" stroke-linecap="square" stroke-linejoin="round" fill="none" stroke="#1f77b4" d="M73.832729 80.331829 127.50191 80.59365 160.93517 80.64742 172.37287 82.571598 178.53162 83.54565 198.76753 82.99844 224.2824 81.96092 248.0376 81.08745 267.3937 80.594669 288.50947 80.28506 313.14448 80.1536 348.33738 80.2125 398.48728 80.440158"/>
</g>
<g clip-path="url(#clip_5)">
<path transform="matrix(1,0,0,-1,0,345.6)" stroke-width="1.5" stroke-linecap="square" stroke-linejoin="round" fill="none" stroke="#ff7f0e" d="M73.832729 80.331829 127.50191 80.59365 160.93517 80.64742 168.85358 83.34627 178.53162 86.524257 195.24825 86.02427 204.04648 85.413928 215.48416 84.36133 240.99903 81.92415 252.43672 81.09602 263.87443 80.48201 277.07176 80.010189 292.02876 79.71755 309.62519 79.60558 333.3804 79.69381 380.011 80.15043 398.48728 80.326007"/>
</g>
<g clip-path="url(#clip_6)">
<path transform="matrix(1,0,0,-1,0,345.6)" stroke-width="1.5" stroke-linecap="square" stroke-linejoin="round" fill="none" stroke="#2ca02c" d="M73.832729 80.331829 127.50191 80.59365 160.93517 80.64742 167.09392 84.873538 175.01233 90.29912 178.53162 92.97112 180.29126 93.23729 182.93073 93.882678 186.45003 94.99589 189.0895 96.02591 191.72896 97.30475 193.4886 98.365139 195.24825 99.67525 197.00789 101.35833 197.88771 102.40147 198.76753 103.63035 199.64736 105.10302 200.52719 106.903339 201.40702 109.15646 202.28684 112.05613 203.16666 115.91494 204.04648 121.261157 204.9263 129.03084 205.80612 140.94779 206.68595 160.17058 207.56577 191.54737 208.44559 236.48407 209.32541 275.47694 210.20523 286.94987 211.08506 285.2877 211.96488 279.66593 212.8447 271.78495 214.60434 252.18489 218.12364 210.81562 219.88329 192.3764 221.64293 175.7483 224.2824 153.5378 229.56133 111.816219 233.08063 79.73633 233.96045 74.82655 234.84027 72.23408 235.7201 71.15089 236.59992 70.75698 238.35956 70.57651 244.51831 70.589519 265.63407 70.87634 283.2305 71.337818 300.82698 72.02673 321.0629 73.05299 350.97685 74.82556 398.48728 77.65073"/>
</g>
<g clip-path="url(#clip_7)">
<path transform="matrix(1,0,0,-1,0,345.6)" stroke-width="1.5" stroke-linecap="square" stroke-linejoin="round" fill="none" stroke="#d62728" d="M73.832729 80.331829 127.50191 80.59365 160.93517 80.64742 166.2141 87.920978 170.61322 94.07287 172.37287 96.803 174.1325 99.92121 175.89215 103.77336 176.77198 106.17398 177.6518 109.082798 179.41144 116.383319 180.29126 122.03083 181.17108 130.66654 182.0509 144.34018 182.93073 167.00008 183.81055 204.33446 184.69039 254.07399 185.5702 286.31578 186.45003 290.9891 187.32985 287.98469 188.20967 282.30174 189.0895 274.6993 190.84914 255.83269 195.24825 205.66387 197.00789 188.05434 198.76753 172.07692 201.40702 150.50383 205.80612 116.234088 207.56577 100.119319 209.32541 83.53929 210.20523 77.25645 211.08506 73.40805 211.96488 71.60318 212.8447 70.91075 213.72452 70.67036 215.48416 70.564998 224.2824 70.61358 244.51831 70.91425 262.11479 71.399707 279.7112 72.11132 300.82698 73.205669 333.3804 75.15588 377.37153 77.75232 398.48728 78.82819"/>
</g>
<g clip-path="url(#clip_8)">
<path transform="matrix(1,0,0,-1,0,345.6)" stroke-width="1.5" stroke-linecap="square" stroke-linejoin="round" fill="none" stroke="#9467bd" d="M73.832729 80.331829 127.50191 80.59365 160.93517 80.64742 166.2141 89.74552 169.7334 95.95306 171.49304 99.45135 173.25269 103.63239 174.1325 106.1878 175.01233 109.25555 175.89215 113.10317 176.77198 118.18235 177.6518 125.29752 178.53162 135.95648 179.41144 151.60604 180.29126 179.28643 182.0509 271.18775 182.93073 290.52778 183.81055 290.70713 184.69039 286.58674 185.5702 280.20967 186.45003 272.11634 188.20967 252.79676 191.72896 212.37137 193.4886 194.18289 195.24825 177.67818 197.88771 155.5232 203.16666 114.18474 204.9263 97.79494 206.68595 81.61145 207.56577 75.96056 208.44559 72.74865 209.32541 71.33748 210.20523 70.8163 211.08506 70.638217 213.72452 70.558757 229.56133 70.706119 248.0376 71.0633 265.63407 71.632068 284.11033 72.46193 306.98573 73.72579 393.20835 78.71227 398.48728 78.96057"/>
</g>
<g clip-path="url(#clip_9)">
<path transform="matrix(1,0,0,-1,0,345.6)" stroke-width="1.5" stroke-linecap="square" stroke-linejoin="round" fill="none" stroke="#8c564b" d="M73.832729 80.331829 127.50191 80.59365 160.93517 80.64742 166.2141 94.32364 168.85358 101.54715 169.7334 104.30173 170.61322 107.423679 171.49304 111.135158 172.37287 115.80479 173.25269 122.07528 174.1325 131.12944 175.01233 145.24076 175.89215 168.71128 176.77198 207.70354 177.6518 259.00544 178.53162 289.4866 179.41144 292.032 180.29126 288.89344 181.17108 283.32746 182.0509 275.90376 183.81055 257.37467 188.20967 207.43866 189.96932 189.773 191.72896 173.72103 194.36843 152.04996 198.76753 117.95554 200.52719 102.073818 202.28684 85.249217 203.16666 78.46884 204.04648 74.05865 204.9263 71.87209 205.80612 71.00519 206.68595 70.70108 208.44559 70.567058 216.364 70.60278 236.59992 70.889858 254.19637 71.360057 271.79283 72.0573 292.02876 73.09044 321.94273 74.867137 370.33296 77.736278 395.8478 79.01831 398.48728 79.136898"/>
</g>
<g clip-path="url(#clip_10)">
<path transform="matrix(1,0,0,-1,0,345.6)" stroke-width="1.5" stroke-linecap="square" stroke-linejoin="round" fill="none" stroke="#e377c2" d="M73.832729 50.112H160.93517L161.81499 65.7505H178.53162L179.41144 50.112H398.48728"/>
</g>
<path transform="matrix(1,0,0,-1,0,345.6)" stroke-width=".8" stroke-linecap="square" stroke-miterlimit="10" stroke-linejoin="miter" fill="none" stroke="#000000" d="M57.6 38.016V304.128"/>
<path transform="matrix(1,0,0,-1,0,345.6)" stroke-width=".8" stroke-linecap="square" stroke-miterlimit="10" stroke-linejoin="miter" fill="none" stroke="#000000" d="M414.72 38.016V304.128"/>
<path transform="matrix(1,0,0,-1,0,345.6)" stroke-width=".8" stroke-linecap="square" stroke-miterlimit="10" stroke-linejoin="miter" fill="none" stroke="#000000" d="M57.6 38.016H414.72"/>
<path transform="matrix(1,0,0,-1,0,345.6)" stroke-width=".8" stroke-linecap="square" stroke-miterlimit="10" stroke-linejoin="miter" fill="none" stroke="#000000" d="M57.6 304.128H414.72"/>
</svg>
