<svg xmlns="http://www.w3.org/2000/svg" xmlns:xlink="http://www.w3.org/1999/xlink" version="1.1" width="460.8" height="345.6" viewBox="0 0 460.8 345.6">
<defs>
<clipPath id="clip_0">
<path transform="matrix(.01,0,0,-.01,29.50625,274.13496)" d="M-1021-463H1794V1233H-1021Z"/>
</clipPath>
<clipPath id="clip_1">
<path transform="matrix(.01,0,0,-.01,29.50625,223.83507)" d="M-1021-463H1794V1233H-1021Z"/>
</clipPath>
<clipPath id="clip_2">
<path transform="matrix(.01,0,0,-.01,29.50625,173.53519)" d="M-1021-463H1794V1233H-1021Z"/>
</clipPath>
<clipPath id="clip_3">
<path transform="matrix(.01,0,0,-.01,29.50625,123.235309)" d="M-1021-463H1794V1233H-1021Z"/>
</clipPath>
<clipPath id="clip_4">
<path transform="matrix(1,0,0,-1,0,345.6)" d="M57.6 38.016H414.72V304.128H57.6Z"/>
</clipPath>
<clipPath id="clip_5">
<path transform="matrix(1,0,0,-1,0,345.6)" d="M57.6 38.016H414.72V304.128H57.6Z"/>
</clipPath>
<clipPath id="clip_6">
<path transform="matrix(1,0,0,-1,0,345.6)" d="M57.6 38.016H414.72V304.128H57.6Z"/>
</clipPath>
<clipPath id="clip_7">
<path transform="matrix(1,0,0,-1,0,345.6)" d="M57.6 38.016H414.72V304.128H57.6Z"/>
</clipPath>
<clipPath id="clip_8">
<path transform="matrix(1,0,0,-1,0,345.6)" d="M57.6 38.016H414.72V304.128H57.6Z"/>
</clipPath>
<clipPath id="clip_9">
<path transform="matrix(1,0,0,-1,0,345.6)" d="M57.6 38.016H414.72V304.128H57.6Z"/>
</clipPath>
<clipPath id="clip_10">
<path transform="matrix(1,0,0,-1,0,345.6)" d="M57.6 38.016H414.72V304.128H57.6Z"/>
</clipPath>
</defs>
<path transform="matrix(1,0,0,-1,0,345.6)" d="M0 0H460.8V345.6H0Z" fill="#ffffff"/>
<path transform="matrix(1,0,0,-1,0,345.6)" d="M57.6 38.016H414.72V304.128H57.6Z" fill="#ffffff"/>
<path transform="matrix(1,0,0,-1,0,345.6)" d="M73.832729 38.016V34.516"/>
<path transform="matrix(1,0,0,-1,0,345.6)" stroke-width=".8" stroke-linecap="butt" stroke-linejoin="round" fill="none" stroke="#000000" d="M73.832729 38.016V34.516"/>
<text xml:space="preserve" transform="matrix(1 0 -0 1 70.65304 322.17778)" font-size="10" font-family="DejaVuSans"><tspan y="0" x="0">0</tspan></text>
<path transform="matrix(1,0,0,-1,0,345.6)" d="M117.82386 38.016V34.516"/>
<path transform="matrix(1,0,0,-1,0,345.6)" stroke-width=".8" stroke-linecap="butt" stroke-linejoin="round" fill="none" stroke="#000000" d="M117.82386 38.016V34.516"/>
<text xml:space="preserve" transform="matrix(1 0 -0 1 114.64417 322.17778)" font-size="10" font-family="DejaVuSans"><tspan y="0" x="0">5</tspan></text>
<path transform="matrix(1,0,0,-1,0,345.6)" d="M161.81499 38.016V34.516"/>
<path transform="matrix(1,0,0,-1,0,345.6)" stroke-width=".8" stroke-linecap="butt" stroke-linejoin="round" fill="none" stroke="#000000" d="M161.81499 38.016V34.516"/>
<text xml:space="preserve" transform="matrix(1 0 -0 1 155.45561 322.17778)" font-size="10" font-family="DejaVuSans"><tspan y="0" x="0 6.3600008">10</tspan></text>
<path transform="matrix(1,0,0,-1,0,345.6)" d="M205.80612 38.016V34.516"/>
<path transform="matrix(1,0,0,-1,0,345.6)" stroke-width=".8" stroke-linecap="butt" stroke-linejoin="round" fill="none" stroke="#000000" d="M205.80612 38.016V34.516"/>
<text xml:space="preserve" transform="matrix(1 0 -0 1 199.44675 322.17778)" font-size="10" font-family="DejaVuSans"><tspan y="0" x="0 6.3600008">15</tspan></text>
<path transform="matrix(1,0,0,-1,0,345.6)" d="M249.79726 38.016V34.516"/>
<path transform="matrix(1,0,0,-1,0,345.6)" stroke-width=".8" stroke-linecap="butt" stroke-linejoin="round" fill="none" stroke="#000000" d="M249.79726 38.016V34.516"/>
<text xml:space="preserve" transform="matrix(1 0 -0 1 243.43788 322.17778)" font-size="10" font-family="DejaVuSans"><tspan y="0" x="0 6.3600008">20</tspan></text>
<path transform="matrix(1,0,0,-1,0,345.6)" d="M293.7884 38.016V34.516"/>
<path transform="matrix(1,0,0,-1,0,345.6)" stroke-width=".8" stroke-linecap="butt" stroke-linejoin="round" fill="none" stroke="#000000" d="M293.7884 38.016V34.516"/>
<text xml:space="preserve" transform="matrix(1 0 -0 1 287.42903 322.17778)" font-size="10" font-family="DejaVuSans"><tspan y="0" x="0 6.3600008">25</tspan></text>
<path transform="matrix(1,0,0,-1,0,345.6)" d="M337.7795 38.016V34.516"/>
<path transform="matrix(1,0,0,-1,0,345.6)" stroke-width=".8" stroke-linecap="butt" stroke-linejoin="round" fill="none" stroke="#000000" d="M337.7795 38.016V34.516"/>
<text xml:space="preserve" transform="matrix(1 0 -0 1 331.42015 322.17778)" font-size="10" font-family="DejaVuSans"><tspan y="0" x="0 6.3600008">30</tspan></text>
<path transform="matrix(1,0,0,-1,0,345.6)" d="M381.77064 38.016V34.516"/>
<path transform="matrix(1,0,0,-1,0,345.6)" stroke-width=".8" stroke-linecap="butt" stroke-linejoin="round" fill="none" stroke="#000000" d="M381.77064 38.016V34.516"/>
<text xml:space="preserve" transform="matrix(1 0 -0 1 375.41127 322.17778)" font-size="10" font-family="DejaVuSans"><tspan y="0" x="0 6.3600008">35</tspan></text>
<text xml:space="preserve" transform="matrix(1 0 -0 1 210.90219 335.84965)" font-size="10" font-family="DejaVuSans"><tspan y="0" x="0 5.813125 8.593125 18.333127 24.483126 27.663126 31.563126 41.303129 46.513128">Time (ms)</tspan></text>
<path transform="matrix(1,0,0,-1,0,345.6)" d="M57.6 75.26194H54.1"/>
<path transform="matrix(1,0,0,-1,0,345.6)" stroke-width=".8" stroke-linecap="butt" stroke-linejoin="round" fill="none" stroke="#000000" d="M57.6 75.26194H54.1"/>
<text xml:space="preserve" transform="matrix(1 0 -0 1 29.50625 274.13496)" font-size="10" font-family="DejaVuSans"><tspan y="0" x="8.378906 14.738907">80</tspan></text>
<g clip-path="url(#clip_0)">
<path transform="matrix(.01,0,0,-.01,29.50625,274.13496)" d="M106 355H732V272H106V355Z"/>
</g>
<path transform="matrix(1,0,0,-1,0,345.6)" d="M57.6 125.56181H54.1"/>
<path transform="matrix(1,0,0,-1,0,345.6)" stroke-width=".8" stroke-linecap="butt" stroke-linejoin="round" fill="none" stroke="#000000" d="M57.6 125.56181H54.1"/>
<text xml:space="preserve" transform="matrix(1 0 -0 1 29.50625 223.83507)" font-size="10" font-family="DejaVuSans"><tspan y="0" x="8.378906 14.738907">60</tspan></text>
<g clip-path="url(#clip_1)">
<path transform="matrix(.01,0,0,-.01,29.50625,223.83507)" d="M106 355H732V272H106V355Z"/>
</g>
<path transform="matrix(1,0,0,-1,0,345.6)" d="M57.6 175.8617H54.1"/>
<path transform="matrix(1,0,0,-1,0,345.6)" stroke-width=".8" stroke-linecap="butt" stroke-linejoin="round" fill="none" stroke="#000000" d="M57.6 175.8617H54.1"/>
<text xml:space="preserve" transform="matrix(1 0 -0 1 29.50625 173.53519)" font-size="10" font-family="DejaVuSans"><tspan y="0" x="8.378906 14.738907">40</tspan></text>
<g clip-path="url(#clip_2)">
<path transform="matrix(.01,0,0,-.01,29.50625,173.53519)" d="M106 355H732V272H106V355Z"/>
</g>
<path transform="matrix(1,0,0,-1,0,345.6)" d="M57.6 226.16158H54.1"/>
<path transform="matrix(1,0,0,-1,0,345.6)" stroke-width=".8" stroke-linecap="butt" stroke-linejoin="round" fill="none" stroke="#000000" d="M57.6 226.16158H54.1"/>
<text xml:space="preserve" transform="matrix(1 0 -0 1 29.50625 123.235309)" font-size="10" font-family="DejaVuSans"><tspan y="0" x="8.378906 14.738907">20</tspan></text>
<g clip-path="url(#clip_3)">
<path transform="matrix(.01,0,0,-.01,29.50625,123.235309)" d="M106 355H732V272H106V355Z"/>
</g>
<path transform="matrix(1,0,0,-1,0,345.6)" d="M57.6 276.46147H54.1"/>
<path transform="matrix(1,0,0,-1,0,345.6)" stroke-width=".8" stroke-linecap="butt" stroke-linejoin="round" fill="none" stroke="#000000" d="M57.6 276.46147H54.1"/>
<text xml:space="preserve" transform="matrix(1 0 -0 1 44.240625 72.935428)" font-size="10" font-family="DejaVuSans"><tspan y="0" x="0">0</tspan></text>
<text xml:space="preserve" transform="matrix(0 -1 1 0 23.428126 190.153)" font-size="10" font-family="DejaVuSans"><tspan y="0" x="0 6.84 10.74 20.48 27.32">V(mV)</tspan></text>
<g clip-path="url(#clip_4)">
<path transform="matrix(1,0,0,-1,0,345.6)" stroke-width="1.5" stroke-linecap="square" stroke-linejoin="round" fill="none" stroke="#1f77b4" d="M73.832729 98.685588 106.38616 98.20134 138.9396 97.94752 160.93517 97.88017 168.85358 100.019199 177.6518 102.173 178.53162 102.3752 203.16666 100.868709 226.04204 99.49452 242.75867 98.720279 259.4753 98.17409 277.95158 97.80423 299.94715 97.60475 328.9813 97.587268 393.20835 97.85233 398.48728 97.87279"/>
</g>
<g clip-path="url(#clip_5)">
<path transform="matrix(1,0,0,-1,0,345.6)" stroke-width="1.5" stroke-linecap="square" stroke-linejoin="round" fill="none" stroke="#ff7f0e" d="M73.832729 98.685588 106.38616 98.20134 138.9396 97.94752 160.93517 97.88017 167.09392 101.24977 174.1325 104.82718 178.53162 106.92611 191.72896 105.456508 204.04648 103.746158 221.64293 101.32695 232.20079 100.11268 242.75867 99.13509 253.31655 98.38898 264.75425 97.810848 277.07176 97.40748 292.02876 97.149478 310.505 97.07044 336.01988 97.20391 398.48728 97.775638"/>
</g>
<g clip-path="url(#clip_6)">
<path transform="matrix(1,0,0,-1,0,345.6)" stroke-width="1.5" stroke-linecap="square" stroke-linejoin="round" fill="none" stroke="#2ca02c" d="M73.832729 98.685588 106.38616 98.20134 138.9396 97.94752 160.93517 97.88017 165.33428 102.75037 171.49304 109.199588 178.53162 116.29127 182.0509 115.95098 186.45003 115.499179 189.96932 114.92945 193.4886 114.153339 197.88771 112.914089 202.28684 111.43224 209.32541 108.770008 219.00347 105.11074 224.2824 103.33205 229.56133 101.774089 234.84027 100.44709 240.1192 99.34066 246.27796 98.300579 252.43672 97.49313 259.4753 96.805919 267.3937 96.27282 276.19194 95.90929 286.7498 95.705669 299.94715 95.69446 317.54359 95.93078 347.45756 96.59995 388.80924 97.480358 398.48728 97.63654"/>
</g>
<g clip-path="url(#clip_7)">
<path transform="matrix(1,0,0,-1,0,345.6)" stroke-width="1.5" stroke-linecap="square" stroke-linejoin="round" fill="none" stroke="#d62728" d="M73.832729 98.685588 106.38616 98.20134 138.9396 97.94752 160.93517 97.88017 165.33428 107.628368 175.01233 128.67508 176.77198 133.13942 178.53162 138.31282 179.41144 139.3463 180.29126 140.87776 181.17108 142.88732 182.0509 145.40097 182.93073 148.50054 183.81055 152.33499 184.69039 157.14133 185.5702 163.28057 186.45003 171.29233 187.32985 181.95983 188.20967 196.32271 189.0895 215.3969 190.84914 263.27537 191.72896 280.67506 192.60878 287.7993 193.4886 288.83857 194.36843 287.5073 195.24825 284.92915 196.12807 281.37577 197.00789 276.94917 197.88771 271.72575 199.64736 259.2365 201.40702 244.70067 204.04648 220.77176 207.56577 187.17568 209.32541 169.21239 211.08506 149.16153 214.60434 104.08684 215.48416 95.71115 216.364 90.09269 217.24382 86.82231 218.12364 85.072917 219.00347 84.1641 219.88329 83.69161 220.7631 83.4439 222.52275 83.24684 226.04204 83.20795 236.59992 83.44712 250.67708 83.97575 264.75425 84.735668 279.7112 85.77908 297.30769 87.24314 325.462 89.848529 358.89527 92.889888 380.011 94.58331 398.48728 95.84472"/>
</g>
<g clip-path="url(#clip_8)">
<path transform="matrix(1,0,0,-1,0,345.6)" stroke-width="1.5" stroke-linecap="square" stroke-linejoin="round" fill="none" stroke="#9467bd" d="M73.832729 98.685588 106.38616 98.20134 138.9396 97.94752 160.93517 97.88017 165.33428 110.06806 172.37287 129.21686 174.1325 134.62143 175.89215 140.90479 176.77198 144.60752 177.6518 148.88619 178.53162 153.97782 179.41144 157.79651 180.29126 163.5211 181.17108 171.50589 182.0509 182.44159 182.93073 197.36371 183.81055 217.31566 185.5702 266.83155 186.45003 283.64628 187.32985 289.77555 188.20967 290.3236 189.0895 288.85493 189.96932 286.27687 190.84914 282.78459 191.72896 278.44908 192.60878 273.3295 194.36843 261.04325 196.12807 246.6642 198.76753 222.8625 202.28684 189.38288 204.04648 171.59493 205.80612 151.86928 207.56577 129.35149 209.32541 106.57119 210.20523 97.53713 211.08506 91.22793 211.96488 87.444599 212.8447 85.393527 213.72452 84.3266 214.60434 83.77407 215.48416 83.48562 217.24382 83.25609 220.7631 83.204059 230.44115 83.413379 244.51831 83.92337 258.5955 84.66425 273.55247 85.69036 291.14894 87.14062 317.54359 89.573207 353.61634 92.86576 374.73207 94.562358 393.20835 95.82716 398.48728 96.145359"/>
</g>
<g clip-path="url(#clip_9)">
<path transform="matrix(1,0,0,-1,0,345.6)" stroke-width="1.5" stroke-linecap="square" stroke-linejoin="round" fill="none" stroke="#8c564b" d="M73.832729 98.685588 106.38616 98.20134 138.9396 97.94752 160.93517 97.88017 165.33428 116.170009 169.7334 134.29579 171.49304 142.50249 172.37287 147.22418 173.25269 152.65233 174.1325 159.14377 175.01233 167.23645 175.89215 177.74005 176.77198 191.82198 177.6518 210.89698 179.41144 260.3423 180.29126 281.13917 181.17108 290.41127 182.0509 292.032 182.93073 291.04347 183.81055 288.90565 184.69039 285.87678 185.5702 282.01768 186.45003 277.36659 188.20967 265.91374 189.96932 252.14598 192.60878 228.82796 197.00789 187.09369 198.76753 169.12158 200.52719 149.03592 204.04648 103.880397 204.9263 95.532 205.80612 89.95836 206.68595 86.73153 207.56577 85.01453 208.44559 84.126918 209.32541 83.66765 211.08506 83.30295 213.72452 83.197528 220.7631 83.3031 234.84027 83.74615 248.91744 84.41709 262.9946 85.31443 278.8314 86.54931 299.94715 88.43334 354.49617 93.39836 374.73207 94.958568 393.20835 96.15518 398.48728 96.45246"/>
</g>
<g clip-path="url(#clip_10)">
<path transform="matrix(1,0,0,-1,0,345.6)" stroke-width="1.5" stroke-linecap="square" stroke-linejoin="round" fill="none" stroke="#e377c2" d="M73.832729 50.112H160.93517L161.81499 75.26194H178.53162L179.41144 50.112H398.48728"/>
</g>
<path transform="matrix(1,0,0,-1,0,345.6)" stroke-width=".8" stroke-linecap="square" stroke-miterlimit="10" stroke-linejoin="miter" fill="none" stroke="#000000" d="M57.6 38.016V304.128"/>
<path transform="matrix(1,0,0,-1,0,345.6)" stroke-width=".8" stroke-linecap="square" stroke-miterlimit="10" stroke-linejoin="miter" fill="none" stroke="#000000" d="M414.72 38.016V304.128"/>
<path transform="matrix(1,0,0,-1,0,345.6)" stroke-width=".8" stroke-linecap="square" stroke-miterlimit="10" stroke-linejoin="miter" fill="none" stroke="#000000" d="M57.6 38.016H414.72"/>
<path transform="matrix(1,0,0,-1,0,345.6)" stroke-width=".8" stroke-linecap="square" stroke-miterlimit="10" stroke-linejoin="miter" fill="none" stroke="#000000" d="M57.6 304.128H414.72"/>
</svg>
