<svg xmlns="http://www.w3.org/2000/svg" xmlns:xlink="http://www.w3.org/1999/xlink" version="1.1" width="460.8" height="345.6" viewBox="0 0 460.8 345.6">
<defs>
<clipPath id="clip_0">
<path transform="matrix(.01,0,0,-.01,29.50625,278.5042)" d="M-1021-463H1794V1233H-1021Z"/>
</clipPath>
<clipPath id="clip_1">
<path transform="matrix(.01,0,0,-.01,29.50625,243.86972)" d="M-1021-463H1794V1233H-1021Z"/>
</clipPath>
<clipPath id="clip_2">
<path transform="matrix(.01,0,0,-.01,29.50625,209.23525)" d="M-1021-463H1794V1233H-1021Z"/>
</clipPath>
<clipPath id="clip_3">
<path transform="matrix(1,0,0,-1,0,345.6)" d="M57.6 38.016H414.72V304.128H57.6Z"/>
</clipPath>
<clipPath id="clip_4">
<path transform="matrix(1,0,0,-1,0,345.6)" d="M57.6 38.016H414.72V304.128H57.6Z"/>
</clipPath>
<clipPath id="clip_5">
<path transform="matrix(1,0,0,-1,0,345.6)" d="M57.6 38.016H414.72V304.128H57.6Z"/>
</clipPath>
<clipPath id="clip_6">
<path transform="matrix(1,0,0,-1,0,345.6)" d="M57.6 38.016H414.72V304.128H57.6Z"/>
</clipPath>
<clipPath id="clip_7">
<path transform="matrix(1,0,0,-1,0,345.6)" d="M57.6 38.016H414.72V304.128H57.6Z"/>
</clipPath>
<clipPath id="clip_8">
<path transform="matrix(1,0,0,-1,0,345.6)" d="M57.6 38.016H414.72V304.128H57.6Z"/>
</clipPath>
<clipPath id="clip_9">
<path transform="matrix(1,0,0,-1,0,345.6)" d="M57.6 38.016H414.72V304.128H57.6Z"/>
</clipPath>
</defs>
<path transform="matrix(1,0,0,-1,0,345.6)" d="M0 0H460.8V345.6H0Z" fill="#ffffff"/>
<path transform="matrix(1,0,0,-1,0,345.6)" d="M57.6 38.016H414.72V304.128H57.6Z" fill="#ffffff"/>
<path transform="matrix(1,0,0,-1,0,345.6)" d="M73.832729 38.016V34.516"/>
<path transform="matrix(1,0,0,-1,0,345.6)" stroke-width=".8" stroke-linecap="butt" stroke-linejoin="round" fill="none" stroke="#000000" d="M73.832729 38.016V34.516"/>
<text xml:space="preserve" transform="matrix(1 0 -0 1 70.65304 322.17778)" font-size="10" font-family="DejaVuSans"><tspan y="0" x="0">0</tspan></text>
<path transform="matrix(1,0,0,-1,0,345.6)" d="M117.82386 38.016V34.516"/>
<path transform="matrix(1,0,0,-1,0,345.6)" stroke-width=".8" stroke-linecap="butt" stroke-linejoin="round" fill="none" stroke="#000000" d="M117.82386 38.016V34.516"/>
<text xml:space="preserve" transform="matrix(1 0 -0 1 114.64417 322.17778)" font-size="10" font-family="DejaVuSans"><tspan y="0" x="0">5</tspan></text>
<path transform="matrix(1,0,0,-1,0,345.6)" d="M161.81499 38.016V34.516"/>
<path transform="matrix(1,0,0,-1,0,345.6)" stroke-width=".8" stroke-linecap="butt" stroke-linejoin="round" fill="none" stroke="#000000" d="M161.81499 38.016V34.516"/>
<text xml:space="preserve" transform="matrix(1 0 -0 1 155.45561 322.17778)" font-size="10" font-family="DejaVuSans"><tspan y="0" x="0 6.3600008">10</tspan></text>
<path transform="matrix(1,0,0,-1,0,345.6)" d="M205.80612 38.016V34.516"/>
<path transform="matrix(1,0,0,-1,0,345.6)" stroke-width=".8" stroke-linecap="butt" stroke-linejoin="round" fill="none" stroke="#000000" d="M205.80612 38.016V34.516"/>
<text xml:space="preserve" transform="matrix(1 0 -0 1 199.44675 322.17778)" font-size="10" font-family="DejaVuSans"><tspan y="0" x="0 6.3600008">15</tspan></text>
<path transform="matrix(1,0,0,-1,0,345.6)" d="M249.79726 38.016V34.516"/>
<path transform="matrix(1,0,0,-1,0,345.6)" stroke-width=".8" stroke-linecap="butt" stroke-linejoin="round" fill="none" stroke="#000000" d="M249.79726 38.016V34.516"/>
<text xml:space="preserve" transform="matrix(1 0 -0 1 243.43788 322.17778)" font-size="10" font-family="DejaVuSans"><tspan y="0" x="0 6.3600008">20</tspan></text>
<path transform="matrix(1,0,0,-1,0,345.6)" d="M293.7884 38.016V34.516"/>
<path transform="matrix(1,0,0,-1,0,345.6)" stroke-width=".8" stroke-linecap="butt" stroke-linejoin="round" fill="none" stroke="#000000" d="M293.7884 38.016V34.516"/>
<text xml:space="preserve" transform="matrix(1 0 -0 1 287.42903 322.17778)" font-size="10" font-family="DejaVuSans"><tspan y="0" x="0 6.3600008">25</tspan></text>
<path transform="matrix(1,0,0,-1,0,345.6)" d="M337.7795 38.016V34.516"/>
<path transform="matrix(1,0,0,-1,0,345.6)" stroke-width=".8" stroke-linecap="butt" stroke-linejoin="round" fill="none" stroke="#000000" d="M337.7795 38.016V34.516"/>
<text xml:space="preserve" transform="matrix(1 0 -0 1 331.42015 322.17778)" font-size="10" font-family="DejaVuSans"><tspan y="0" x="0 6.3600008">30</tspan></text>
<path transform="matrix(1,0,0,-1,0,345.6)" d="M381.77064 38.016V34.516"/>
<path transform="matrix(1,0,0,-1,0,345.6)" stroke-width=".8" stroke-linecap="butt" stroke-linejoin="round" fill="none" stroke="#000000" d="M381.77064 38.016V34.516"/>
<text xml:space="preserve" transform="matrix(1 0 -0 1 375.41127 322.17778)" font-size="10" font-family="DejaVuSans"><tspan y="0" x="0 6.3600008">35</tspan></text>
<text xml:space="preserve" transform="matrix(1 0 -0 1 210.90219 335.84965)" font-size="10" font-family="DejaVuSans"><tspan y="0" x="0 5.813125 8.593125 18.333127 24.483126 27.663126 31.563126 41.303129 46.513128">Time (ms)</tspan></text>
<path transform="matrix(1,0,0,-1,0,345.6)" d="M57.6 70.892688H54.1"/>
<path transform="matrix(1,0,0,-1,0,345.6)" stroke-width=".8" stroke-linecap="butt" stroke-linejoin="round" fill="none" stroke="#000000" d="M57.6 70.892688H54.1"/>
<text xml:space="preserve" transform="matrix(1 0 -0 1 29.50625 278.5042)" font-size="10" font-family="DejaVuSans"><tspan y="0" x="8.378906 14.738907">75</tspan></text>
<g clip-path="url(#clip_0)">
<path transform="matrix(.01,0,0,-.01,29.50625,278.5042)" d="M106 355H732V272H106V355Z"/>
</g>
<path transform="matrix(1,0,0,-1,0,345.6)" d="M57.6 105.52716H54.1"/>
<path transform="matrix(1,0,0,-1,0,345.6)" stroke-width=".8" stroke-linecap="butt" stroke-linejoin="round" fill="none" stroke="#000000" d="M57.6 105.52716H54.1"/>
<text xml:space="preserve" transform="matrix(1 0 -0 1 29.50625 243.86972)" font-size="10" font-family="DejaVuSans"><tspan y="0" x="8.378906 14.738907">50</tspan></text>
<g clip-path="url(#clip_1)">
<path transform="matrix(.01,0,0,-.01,29.50625,243.86972)" d="M106 355H732V272H106V355Z"/>
</g>
<path transform="matrix(1,0,0,-1,0,345.6)" d="M57.6 140.16164H54.1"/>
<path transform="matrix(1,0,0,-1,0,345.6)" stroke-width=".8" stroke-linecap="butt" stroke-linejoin="round" fill="none" stroke="#000000" d="M57.6 140.16164H54.1"/>
<text xml:space="preserve" transform="matrix(1 0 -0 1 29.50625 209.23525)" font-size="10" font-family="DejaVuSans"><tspan y="0" x="8.378906 14.738907">25</tspan></text>
<g clip-path="url(#clip_2)">
<path transform="matrix(.01,0,0,-.01,29.50625,209.23525)" d="M106 355H732V272H106V355Z"/>
</g>
<path transform="matrix(1,0,0,-1,0,345.6)" d="M57.6 174.79611H54.1"/>
<path transform="matrix(1,0,0,-1,0,345.6)" stroke-width=".8" stroke-linecap="butt" stroke-linejoin="round" fill="none" stroke="#000000" d="M57.6 174.79611H54.1"/>
<text xml:space="preserve" transform="matrix(1 0 -0 1 44.240625 174.60077)" font-size="10" font-family="DejaVuSans"><tspan y="0" x="0">0</tspan></text>
<path transform="matrix(1,0,0,-1,0,345.6)" d="M57.6 209.43059H54.1"/>
<path transform="matrix(1,0,0,-1,0,345.6)" stroke-width=".8" stroke-linecap="butt" stroke-linejoin="round" fill="none" stroke="#000000" d="M57.6 209.43059H54.1"/>
<text xml:space="preserve" transform="matrix(1 0 -0 1 37.88125 139.9663)" font-size="10" font-family="DejaVuSans"><tspan y="0" x="0 6.3600008">25</tspan></text>
<path transform="matrix(1,0,0,-1,0,345.6)" d="M57.6 244.06507H54.1"/>
<path transform="matrix(1,0,0,-1,0,345.6)" stroke-width=".8" stroke-linecap="butt" stroke-linejoin="round" fill="none" stroke="#000000" d="M57.6 244.06507H54.1"/>
<text xml:space="preserve" transform="matrix(1 0 -0 1 37.88125 105.33182)" font-size="10" font-family="DejaVuSans"><tspan y="0" x="0 6.3600008">50</tspan></text>
<path transform="matrix(1,0,0,-1,0,345.6)" d="M57.6 278.69956H54.1"/>
<path transform="matrix(1,0,0,-1,0,345.6)" stroke-width=".8" stroke-linecap="butt" stroke-linejoin="round" fill="none" stroke="#000000" d="M57.6 278.69956H54.1"/>
<text xml:space="preserve" transform="matrix(1 0 -0 1 37.88125 70.69733)" font-size="10" font-family="DejaVuSans"><tspan y="0" x="0 6.3600008">75</tspan></text>
<text xml:space="preserve" transform="matrix(0 -1 1 0 23.428126 190.153)" font-size="10" font-family="DejaVuSans"><tspan y="0" x="0 6.84 10.74 20.48 27.32">V(mV)</tspan></text>
<g clip-path="url(#clip_3)">
<path transform="matrix(1,0,0,-1,0,345.6)" stroke-width="1.5" stroke-linecap="square" stroke-linejoin="round" fill="none" stroke="#1f77b4" d="M73.832729 76.88785 119.5835 77.30442 161.81499 77.60064 177.6518 79.9494 178.53162 80.075138 198.76753 79.69198 217.24382 79.03893 253.31655 77.72345 273.55247 77.243259 294.6682 76.967418 320.18309 76.86513 357.13563 76.965457 398.48728 77.1759"/>
</g>
<g clip-path="url(#clip_4)">
<path transform="matrix(1,0,0,-1,0,345.6)" stroke-width="1.5" stroke-linecap="square" stroke-linejoin="round" fill="none" stroke="#ff7f0e" d="M73.832729 76.88785 119.5835 77.30442 160.93517 77.461879 170.61322 80.39182 178.53162 82.774669 197.88771 82.60688 205.80612 82.191898 214.60434 81.50679 227.80168 80.22058 244.51831 78.61971 255.95601 77.75227 267.3937 77.11254 279.7112 76.653018 293.7884 76.35926 310.505 76.23932 332.50059 76.31595 369.45314 76.703029 398.48728 77.03112"/>
</g>
<g clip-path="url(#clip_5)">
<path transform="matrix(1,0,0,-1,0,345.6)" stroke-width="1.5" stroke-linecap="square" stroke-linejoin="round" fill="none" stroke="#2ca02c" d="M73.832729 76.88785 119.5835 77.30442 160.93517 77.461879 167.97374 81.7492 174.1325 85.58808 177.6518 88.064098 178.53162 88.75085 180.29126 89.168277 182.0509 89.78342 184.69039 90.99743 186.45003 92.03508 188.20967 93.337268 189.96932 95.03969 190.84914 96.11212 191.72896 97.3935 192.60878 98.95601 193.4886 100.90798 194.36843 103.418567 195.24825 106.76415 196.12807 111.420619 197.00789 118.25617 197.88771 128.94773 198.76753 146.83759 199.64736 178.0263 201.40702 274.847 202.28684 287.94084 203.16666 285.5006 204.04648 278.77043 204.9263 269.59275 206.68595 247.63578 209.32541 214.48194 211.08506 194.98256 212.8447 177.7904 214.60434 162.54738 216.364 148.81639 219.00347 130.09758 221.64293 111.581 223.40258 97.49292 225.16222 82.28404 226.04204 75.91063 226.92186 71.626728 227.80168 69.463687 228.6815 68.618618 229.56133 68.33588 231.32097 68.22142 240.99903 68.26687 262.9946 68.558139 281.47087 69.02787 300.82698 69.75608 323.70237 70.855228 366.81367 73.21066 398.48728 74.87192"/>
</g>
<g clip-path="url(#clip_6)">
<path transform="matrix(1,0,0,-1,0,345.6)" stroke-width="1.5" stroke-linecap="square" stroke-linejoin="round" fill="none" stroke="#d62728" d="M73.832729 76.88785 119.5835 77.30442 160.93517 77.461879 167.09392 84.99332 170.61322 89.50316 172.37287 92.071819 174.1325 95.1174 175.01233 96.944957 175.89215 99.092578 176.77198 101.70857 177.6518 105.033939 178.53162 109.48168 179.41144 114.72776 180.29126 123.404 181.17108 137.89815 182.0509 163.28572 182.93073 207.10242 183.81055 262.76197 184.69039 288.99937 185.5702 289.6165 186.45003 284.60997 187.32985 276.86463 189.0895 256.52476 192.60878 213.01804 194.36843 193.99623 196.12807 177.1454 197.88771 162.13025 200.52719 142.16477 205.80612 104.62523 209.32541 75.73033 210.20523 71.50975 211.08506 69.40542 211.96488 68.59417 212.8447 68.32608 214.60434 68.21931 224.2824 68.26558 246.27796 68.55504 264.75425 69.02283 283.2305 69.71149 306.1059 70.80141 346.57774 73.00862 386.16978 75.07863 398.48728 75.64945"/>
</g>
<g clip-path="url(#clip_7)">
<path transform="matrix(1,0,0,-1,0,345.6)" stroke-width="1.5" stroke-linecap="square" stroke-linejoin="round" fill="none" stroke="#9467bd" d="M73.832729 76.88785 119.5835 77.30442 160.93517 77.461879 170.61322 92.75414 172.37287 96.38425 173.25269 98.58872 174.1325 101.224819 175.01233 104.52119 175.89215 108.867458 176.77198 114.96844 177.6518 124.18288 178.53162 139.27056 179.41144 164.51068 180.29126 209.54297 181.17108 265.1994 182.0509 289.71919 182.93073 289.8523 183.81055 284.7821 184.69039 277.04597 186.45003 256.78096 189.96932 213.37465 191.72896 194.36101 193.4886 177.50403 195.24825 162.47679 197.88771 142.49263 203.16666 105.006488 206.68595 76.016338 207.56577 71.671909 208.44559 69.473438 209.32541 68.61713 210.20523 68.333 211.96488 68.21965 221.64293 68.26498 243.63849 68.55358 262.11479 69.02044 280.59104 69.70827 303.46644 70.79751 343.93827 73.00452 383.53028 75.075038 398.48728 75.762378"/>
</g>
<g clip-path="url(#clip_8)">
<path transform="matrix(1,0,0,-1,0,345.6)" stroke-width="1.5" stroke-linecap="square" stroke-linejoin="round" fill="none" stroke="#8c564b" d="M73.832729 76.88785 119.5835 77.30442 160.93517 77.461879 168.85358 96.20517 169.7334 98.807178 170.61322 101.838069 171.49304 105.56862 172.37287 110.46886 173.25269 117.40592 174.1325 128.08556 175.01233 146.01288 175.89215 177.9352 177.6518 280.26863 178.53162 292.032 179.41144 289.0279 180.29126 283.03556 181.17108 274.72444 182.93073 254.01749 185.5702 221.2497 187.32985 201.47463 189.0895 183.87926 190.84914 168.2313 192.60878 154.15013 195.24825 135.10378 198.76753 110.49424 200.52719 96.21352 202.28684 81.046428 203.16666 74.96448 204.04648 71.077487 204.9263 69.22217 205.80612 68.52986 206.68595 68.30513 208.44559 68.21715 219.88329 68.28065 240.99903 68.57317 259.4753 69.052318 278.8314 69.78939 301.7068 70.895298 347.45756 73.397129 382.65046 75.207088 398.48728 75.91901"/>
</g>
<g clip-path="url(#clip_9)">
<path transform="matrix(1,0,0,-1,0,345.6)" stroke-width="1.5" stroke-linecap="square" stroke-linejoin="round" fill="none" stroke="#e377c2" d="M73.832729 50.112H160.93517L161.81499 63.96579H178.53162L179.41144 50.112H398.48728"/>
</g>
<path transform="matrix(1,0,0,-1,0,345.6)" stroke-width=".8" stroke-linecap="square" stroke-miterlimit="10" stroke-linejoin="miter" fill="none" stroke="#000000" d="M57.6 38.016V304.128"/>
<path transform="matrix(1,0,0,-1,0,345.6)" stroke-width=".8" stroke-linecap="square" stroke-miterlimit="10" stroke-linejoin="miter" fill="none" stroke="#000000" d="M414.72 38.016V304.128"/>
<path transform="matrix(1,0,0,-1,0,345.6)" stroke-width=".8" stroke-linecap="square" stroke-miterlimit="10" stroke-linejoin="miter" fill="none" stroke="#000000" d="M57.6 38.016H414.72"/>
<path transform="matrix(1,0,0,-1,0,345.6)" stroke-width=".8" stroke-linecap="square" stroke-miterlimit="10" stroke-linejoin="miter" fill="none" stroke="#000000" d="M57.6 304.128H414.72"/>
</svg>
