<svg xmlns="http://www.w3.org/2000/svg" xmlns:xlink="http://www.w3.org/1999/xlink" version="1.1" width="460.8" height="345.6" viewBox="0 0 460.8 345.6">
<defs>
<clipPath id="clip_0">
<path transform="matrix(.01,0,0,-.01,29.50625,278.37205)" d="M-1021-463H1794V1233H-1021Z"/>
</clipPath>
<clipPath id="clip_1">
<path transform="matrix(.01,0,0,-.01,29.50625,236.54636)" d="M-1021-463H1794V1233H-1021Z"/>
</clipPath>
<clipPath id="clip_2">
<path transform="matrix(.01,0,0,-.01,29.50625,194.72068)" d="M-1021-463H1794V1233H-1021Z"/>
</clipPath>
<clipPath id="clip_3">
<path transform="matrix(.01,0,0,-.01,29.50625,152.89499)" d="M-1021-463H1794V1233H-1021Z"/>
</clipPath>
<clipPath id="clip_4">
<path transform="matrix(1,0,0,-1,0,345.6)" d="M57.6 38.016H414.72V304.128H57.6Z"/>
</clipPath>
<clipPath id="clip_5">
<path transform="matrix(1,0,0,-1,0,345.6)" d="M57.6 38.016H414.72V304.128H57.6Z"/>
</clipPath>
<clipPath id="clip_6">
<path transform="matrix(1,0,0,-1,0,345.6)" d="M57.6 38.016H414.72V304.128H57.6Z"/>
</clipPath>
<clipPath id="clip_7">
<path transform="matrix(1,0,0,-1,0,345.6)" d="M57.6 38.016H414.72V304.128H57.6Z"/>
</clipPath>
<clipPath id="clip_8">
<path transform="matrix(1,0,0,-1,0,345.6)" d="M57.6 38.016H414.72V304.128H57.6Z"/>
</clipPath>
<clipPath id="clip_9">
<path transform="matrix(1,0,0,-1,0,345.6)" d="M57.6 38.016H414.72V304.128H57.6Z"/>
</clipPath>
<clipPath id="clip_10">
<path transform="matrix(1,0,0,-1,0,345.6)" d="M57.6 38.016H414.72V304.128H57.6Z"/>
</clipPath>
</defs>
<path transform="matrix(1,0,0,-1,0,345.6)" d="M0 0H460.8V345.6H0Z" fill="#ffffff"/>
<path transform="matrix(1,0,0,-1,0,345.6)" d="M57.6 38.016H414.72V304.128H57.6Z" fill="#ffffff"/>
<path transform="matrix(1,0,0,-1,0,345.6)" d="M73.832729 38.016V34.516"/>
<path transform="matrix(1,0,0,-1,0,345.6)" stroke-width=".8" stroke-linecap="butt" stroke-linejoin="round" fill="none" stroke="#000000" d="M73.832729 38.016V34.516"/>
<text xml:space="preserve" transform="matrix(1 0 -0 1 70.65304 322.17778)" font-size="10" font-family="DejaVuSans"><tspan y="0" x="0">0</tspan></text>
<path transform="matrix(1,0,0,-1,0,345.6)" d="M117.82386 38.016V34.516"/>
<path transform="matrix(1,0,0,-1,0,345.6)" stroke-width=".8" stroke-linecap="butt" stroke-linejoin="round" fill="none" stroke="#000000" d="M117.82386 38.016V34.516"/>
<text xml:space="preserve" transform="matrix(1 0 -0 1 114.64417 322.17778)" font-size="10" font-family="DejaVuSans"><tspan y="0" x="0">5</tspan></text>
<path transform="matrix(1,0,0,-1,0,345.6)" d="M161.81499 38.016V34.516"/>
<path transform="matrix(1,0,0,-1,0,345.6)" stroke-width=".8" stroke-linecap="butt" stroke-linejoin="round" fill="none" stroke="#000000" d="M161.81499 38.016V34.516"/>
<text xml:space="preserve" transform="matrix(1 0 -0 1 155.45561 322.17778)" font-size="10" font-family="DejaVuSans"><tspan y="0" x="0 6.3600008">10</tspan></text>
<path transform="matrix(1,0,0,-1,0,345.6)" d="M205.80612 38.016V34.516"/>
<path transform="matrix(1,0,0,-1,0,345.6)" stroke-width=".8" stroke-linecap="butt" stroke-linejoin="round" fill="none" stroke="#000000" d="M205.80612 38.016V34.516"/>
<text xml:space="preserve" transform="matrix(1 0 -0 1 199.44675 322.17778)" font-size="10" font-family="DejaVuSans"><tspan y="0" x="0 6.3600008">15</tspan></text>
<path transform="matrix(1,0,0,-1,0,345.6)" d="M249.79726 38.016V34.516"/>
<path transform="matrix(1,0,0,-1,0,345.6)" stroke-width=".8" stroke-linecap="butt" stroke-linejoin="round" fill="none" stroke="#000000" d="M249.79726 38.016V34.516"/>
<text xml:space="preserve" transform="matrix(1 0 -0 1 243.43788 322.17778)" font-size="10" font-family="DejaVuSans"><tspan y="0" x="0 6.3600008">20</tspan></text>
<path transform="matrix(1,0,0,-1,0,345.6)" d="M293.7884 38.016V34.516"/>
<path transform="matrix(1,0,0,-1,0,345.6)" stroke-width=".8" stroke-linecap="butt" stroke-linejoin="round" fill="none" stroke="#000000" d="M293.7884 38.016V34.516"/>
<text xml:space="preserve" transform="matrix(1 0 -0 1 287.42903 322.17778)" font-size="10" font-family="DejaVuSans"><tspan y="0" x="0 6.3600008">25</tspan></text>
<path transform="matrix(1,0,0,-1,0,345.6)" d="M337.7795 38.016V34.516"/>
<path transform="matrix(1,0,0,-1,0,345.6)" stroke-width=".8" stroke-linecap="butt" stroke-linejoin="round" fill="none" stroke="#000000" d="M337.7795 38.016V34.516"/>
<text xml:space="preserve" transform="matrix(1 0 -0 1 331.42015 322.17778)" font-size="10" font-family="DejaVuSans"><tspan y="0" x="0 6.3600008">30</tspan></text>
<path transform="matrix(1,0,0,-1,0,345.6)" d="M381.77064 38.016V34.516"/>
<path transform="matrix(1,0,0,-1,0,345.6)" stroke-width=".8" stroke-linecap="butt" stroke-linejoin="round" fill="none" stroke="#000000" d="M381.77064 38.016V34.516"/>
<text xml:space="preserve" transform="matrix(1 0 -0 1 375.41127 322.17778)" font-size="10" font-family="DejaVuSans"><tspan y="0" x="0 6.3600008">35</tspan></text>
<text xml:space="preserve" transform="matrix(1 0 -0 1 210.90219 335.84965)" font-size="10" font-family="DejaVuSans"><tspan y="0" x="0 5.813125 8.593125 18.333127 24.483126 27.663126 31.563126 41.303129 46.513128">Time (ms)</tspan></text>
<path transform="matrix(1,0,0,-1,0,345.6)" d="M57.6 71.02484H54.1"/>
<path transform="matrix(1,0,0,-1,0,345.6)" stroke-width=".8" stroke-linecap="butt" stroke-linejoin="round" fill="none" stroke="#000000" d="M57.6 71.02484H54.1"/>
<text xml:space="preserve" transform="matrix(1 0 -0 1 29.50625 278.37205)" font-size="10" font-family="DejaVuSans"><tspan y="0" x="8.378906 14.738907">80</tspan></text>
<g clip-path="url(#clip_0)">
<path transform="matrix(.01,0,0,-.01,29.50625,278.37205)" d="M106 355H732V272H106V355Z"/>
</g>
<path transform="matrix(1,0,0,-1,0,345.6)" d="M57.6 112.850528H54.1"/>
<path transform="matrix(1,0,0,-1,0,345.6)" stroke-width=".8" stroke-linecap="butt" stroke-linejoin="round" fill="none" stroke="#000000" d="M57.6 112.850528H54.1"/>
<text xml:space="preserve" transform="matrix(1 0 -0 1 29.50625 236.54636)" font-size="10" font-family="DejaVuSans"><tspan y="0" x="8.378906 14.738907">60</tspan></text>
<g clip-path="url(#clip_1)">
<path transform="matrix(.01,0,0,-.01,29.50625,236.54636)" d="M106 355H732V272H106V355Z"/>
</g>
<path transform="matrix(1,0,0,-1,0,345.6)" d="M57.6 154.67621H54.1"/>
<path transform="matrix(1,0,0,-1,0,345.6)" stroke-width=".8" stroke-linecap="butt" stroke-linejoin="round" fill="none" stroke="#000000" d="M57.6 154.67621H54.1"/>
<text xml:space="preserve" transform="matrix(1 0 -0 1 29.50625 194.72068)" font-size="10" font-family="DejaVuSans"><tspan y="0" x="8.378906 14.738907">40</tspan></text>
<g clip-path="url(#clip_2)">
<path transform="matrix(.01,0,0,-.01,29.50625,194.72068)" d="M106 355H732V272H106V355Z"/>
</g>
<path transform="matrix(1,0,0,-1,0,345.6)" d="M57.6 196.50189H54.1"/>
<path transform="matrix(1,0,0,-1,0,345.6)" stroke-width=".8" stroke-linecap="butt" stroke-linejoin="round" fill="none" stroke="#000000" d="M57.6 196.50189H54.1"/>
<text xml:space="preserve" transform="matrix(1 0 -0 1 29.50625 152.89499)" font-size="10" font-family="DejaVuSans"><tspan y="0" x="8.378906 14.738907">20</tspan></text>
<g clip-path="url(#clip_3)">
<path transform="matrix(.01,0,0,-.01,29.50625,152.89499)" d="M106 355H732V272H106V355Z"/>
</g>
<path transform="matrix(1,0,0,-1,0,345.6)" d="M57.6 238.32758H54.1"/>
<path transform="matrix(1,0,0,-1,0,345.6)" stroke-width=".8" stroke-linecap="butt" stroke-linejoin="round" fill="none" stroke="#000000" d="M57.6 238.32758H54.1"/>
<text xml:space="preserve" transform="matrix(1 0 -0 1 44.240625 111.069309)" font-size="10" font-family="DejaVuSans"><tspan y="0" x="0">0</tspan></text>
<path transform="matrix(1,0,0,-1,0,345.6)" d="M57.6 280.15327H54.1"/>
<path transform="matrix(1,0,0,-1,0,345.6)" stroke-width=".8" stroke-linecap="butt" stroke-linejoin="round" fill="none" stroke="#000000" d="M57.6 280.15327H54.1"/>
<text xml:space="preserve" transform="matrix(1 0 -0 1 37.88125 69.24362)" font-size="10" font-family="DejaVuSans"><tspan y="0" x="0 6.3600008">20</tspan></text>
<text xml:space="preserve" transform="matrix(0 -1 1 0 23.428126 190.153)" font-size="10" font-family="DejaVuSans"><tspan y="0" x="0 6.84 10.74 20.48 27.32">V(mV)</tspan></text>
<g clip-path="url(#clip_4)">
<path transform="matrix(1,0,0,-1,0,345.6)" stroke-width="1.5" stroke-linecap="square" stroke-linejoin="round" fill="none" stroke="#1f77b4" d="M73.832729 90.50947 130.14138 90.225559 160.93517 90.17085 170.61322 92.333309 178.53162 93.946498 200.52719 92.912837 233.96045 91.239498 251.5569 90.606639 270.03318 90.16745 291.14894 89.901 317.54359 89.810199 358.89527 89.92793 398.48728 90.09656"/>
</g>
<g clip-path="url(#clip_5)">
<path transform="matrix(1,0,0,-1,0,345.6)" stroke-width="1.5" stroke-linecap="square" stroke-linejoin="round" fill="none" stroke="#ff7f0e" d="M73.832729 90.50947 130.14138 90.225559 160.93517 90.17085 167.97374 93.36536 175.89215 96.7172 178.53162 97.78752 192.60878 96.684879 203.16666 95.52314 230.44115 92.38958 241.87885 91.375629 253.31655 90.602298 264.75425 90.04924 277.95158 89.63791 292.90858 89.39582 312.26466 89.322467 339.53916 89.47116 398.48728 90.00092"/>
</g>
<g clip-path="url(#clip_6)">
<path transform="matrix(1,0,0,-1,0,345.6)" stroke-width="1.5" stroke-linecap="square" stroke-linejoin="round" fill="none" stroke="#2ca02c" d="M73.832729 90.50947 130.14138 90.225559 160.93517 90.17085 166.2141 95.011829 175.01233 102.6959 178.53162 105.808429 181.17108 105.80446 188.20967 105.93478 191.72896 105.787 195.24825 105.44502 198.76753 104.892208 202.28684 104.12482 205.80612 103.15576 210.20523 101.70998 216.364 99.42244 225.16222 96.14761 230.44115 94.40781 235.7201 92.91202 240.99903 91.66721 246.27796 90.65559 252.43672 89.732 258.5955 89.0389 265.63407 88.47266 273.55247 88.05865 283.2305 87.78923 294.6682 87.70446 309.62519 87.83532 330.74095 88.264537 398.48728 89.8134"/>
</g>
<g clip-path="url(#clip_7)">
<path transform="matrix(1,0,0,-1,0,345.6)" stroke-width="1.5" stroke-linecap="square" stroke-linejoin="round" fill="none" stroke="#d62728" d="M73.832729 90.50947 130.14138 90.225559 160.93517 90.17085 165.33428 98.28266 172.37287 111.066669 174.1325 114.59417 175.89215 118.55239 177.6518 123.296398 178.53162 126.15504 179.41144 127.86886 180.29126 130.36666 181.17108 133.74097 182.0509 138.21823 182.93073 144.22252 183.81055 152.48448 184.69039 164.22115 185.5702 181.33911 186.45003 206.19168 188.20967 271.0553 189.0895 287.51985 189.96932 290.36903 190.84914 288.79188 191.72896 285.45094 192.60878 280.79646 193.4886 275.00749 195.24825 260.73377 197.88771 235.47924 202.28684 192.37459 207.56577 142.58446 209.32541 123.236377 211.96488 92.80678 212.8447 85.76767 213.72452 81.46765 214.60434 79.28149 215.48416 78.285579 216.364 77.84931 218.12364 77.57689 221.64293 77.53652 235.7201 77.7744 251.5569 78.248767 266.5139 78.9204 282.35069 79.85351 301.7068 81.22435 337.7795 84.05924 368.5733 86.37299 390.56889 87.80539 398.48728 88.26016"/>
</g>
<g clip-path="url(#clip_8)">
<path transform="matrix(1,0,0,-1,0,345.6)" stroke-width="1.5" stroke-linecap="square" stroke-linejoin="round" fill="none" stroke="#9467bd" d="M73.832729 90.50947 130.14138 90.225559 160.93517 90.17085 165.33428 100.31302 170.61322 112.33555 172.37287 116.7253 174.1325 121.73395 175.01233 124.64498 175.89215 127.98263 176.77198 131.93408 177.6518 136.78588 179.41144 149.27796 180.29126 159.12346 181.17108 173.88596 182.0509 195.75994 182.93073 226.40084 183.81055 261.1845 184.69039 284.7076 185.5702 291.08985 186.45003 290.50724 187.32985 287.79798 188.20967 283.72779 189.0895 278.48115 189.96932 272.20478 191.72896 257.2697 194.36843 231.6985 198.76753 188.87259 204.04648 138.75016 205.80612 118.84942 207.56577 98.00937 208.44559 89.49411 209.32541 83.62479 210.20523 80.332248 211.08506 78.752887 211.96488 78.05146 212.8447 77.74618 214.60434 77.55709 219.00347 77.54812 234.84027 77.84547 249.79726 78.32894 264.75425 79.03066 281.47087 80.04919 302.5866 81.58387 376.4917 87.1675 396.72764 88.37365 398.48728 88.467739"/>
</g>
<g clip-path="url(#clip_9)">
<path transform="matrix(1,0,0,-1,0,345.6)" stroke-width="1.5" stroke-linecap="square" stroke-linejoin="round" fill="none" stroke="#8c564b" d="M73.832729 90.50947 130.14138 90.225559 160.93517 90.17085 165.33428 105.39241 168.85358 117.55851 170.61322 124.391139 171.49304 128.33213 172.37287 132.89292 173.25269 138.41858 174.1325 145.46276 175.01233 154.93766 175.89215 168.35607 176.77198 188.07183 177.6518 216.70917 178.53162 252.81621 179.41144 280.81507 180.29126 291.47709 181.17108 292.032 182.0509 289.9019 182.93073 286.38264 183.81055 281.67613 184.69039 275.89955 186.45003 261.74137 189.0895 236.68679 193.4886 193.72127 198.76753 144.13883 200.52719 124.99931 203.16666 94.219158 204.04648 86.71516 204.9263 81.97739 205.80612 79.51323 206.68595 78.382 207.56577 77.88775 208.44559 77.67363 210.20523 77.543209 215.48416 77.56237 232.20079 77.89907 247.15778 78.41193 262.11479 79.142917 278.8314 80.187709 300.82698 81.80994 366.81367 86.83761 387.9294 88.14669 398.48728 88.70922"/>
</g>
<g clip-path="url(#clip_10)">
<path transform="matrix(1,0,0,-1,0,345.6)" stroke-width="1.5" stroke-linecap="square" stroke-linejoin="round" fill="none" stroke="#e377c2" d="M73.832729 50.112H160.93517L161.81499 71.02484H178.53162L179.41144 50.112H398.48728"/>
</g>
<path transform="matrix(1,0,0,-1,0,345.6)" stroke-width=".8" stroke-linecap="square" stroke-miterlimit="10" stroke-linejoin="miter" fill="none" stroke="#000000" d="M57.6 38.016V304.128"/>
<path transform="matrix(1,0,0,-1,0,345.6)" stroke-width=".8" stroke-linecap="square" stroke-miterlimit="10" stroke-linejoin="miter" fill="none" stroke="#000000" d="M414.72 38.016V304.128"/>
<path transform="matrix(1,0,0,-1,0,345.6)" stroke-width=".8" stroke-linecap="square" stroke-miterlimit="10" stroke-linejoin="miter" fill="none" stroke="#000000" d="M57.6 38.016H414.72"/>
<path transform="matrix(1,0,0,-1,0,345.6)" stroke-width=".8" stroke-linecap="square" stroke-miterlimit="10" stroke-linejoin="miter" fill="none" stroke="#000000" d="M57.6 304.128H414.72"/>
</svg>
