<svg xmlns="http://www.w3.org/2000/svg" xmlns:xlink="http://www.w3.org/1999/xlink" version="1.1" width="460.8" height="345.6" viewBox="0 0 460.8 345.6">
<defs>
<clipPath id="clip_0">
<path transform="matrix(.01,0,0,-.01,29.50625,277.213)" d="M-1021-463H1794V1233H-1021Z"/>
</clipPath>
<clipPath id="clip_1">
<path transform="matrix(.01,0,0,-.01,29.50625,240.42652)" d="M-1021-463H1794V1233H-1021Z"/>
</clipPath>
<clipPath id="clip_2">
<path transform="matrix(.01,0,0,-.01,29.50625,203.64005)" d="M-1021-463H1794V1233H-1021Z"/>
</clipPath>
<clipPath id="clip_3">
<path transform="matrix(1,0,0,-1,0,345.6)" d="M57.6 38.016H414.72V304.128H57.6Z"/>
</clipPath>
<clipPath id="clip_4">
<path transform="matrix(1,0,0,-1,0,345.6)" d="M57.6 38.016H414.72V304.128H57.6Z"/>
</clipPath>
<clipPath id="clip_5">
<path transform="matrix(1,0,0,-1,0,345.6)" d="M57.6 38.016H414.72V304.128H57.6Z"/>
</clipPath>
<clipPath id="clip_6">
<path transform="matrix(1,0,0,-1,0,345.6)" d="M57.6 38.016H414.72V304.128H57.6Z"/>
</clipPath>
<clipPath id="clip_7">
<path transform="matrix(1,0,0,-1,0,345.6)" d="M57.6 38.016H414.72V304.128H57.6Z"/>
</clipPath>
<clipPath id="clip_8">
<path transform="matrix(1,0,0,-1,0,345.6)" d="M57.6 38.016H414.72V304.128H57.6Z"/>
</clipPath>
<clipPath id="clip_9">
<path transform="matrix(1,0,0,-1,0,345.6)" d="M57.6 38.016H414.72V304.128H57.6Z"/>
</clipPath>
</defs>
<path transform="matrix(1,0,0,-1,0,345.6)" d="M0 0H460.8V345.6H0Z" fill="#ffffff"/>
<path transform="matrix(1,0,0,-1,0,345.6)" d="M57.6 38.016H414.72V304.128H57.6Z" fill="#ffffff"/>
<path transform="matrix(1,0,0,-1,0,345.6)" d="M73.832729 38.016V34.516"/>
<path transform="matrix(1,0,0,-1,0,345.6)" stroke-width=".8" stroke-linecap="butt" stroke-linejoin="round" fill="none" stroke="#000000" d="M73.832729 38.016V34.516"/>
<text xml:space="preserve" transform="matrix(1 0 -0 1 70.65304 322.17778)" font-size="10" font-family="DejaVuSans"><tspan y="0" x="0">0</tspan></text>
<path transform="matrix(1,0,0,-1,0,345.6)" d="M117.82386 38.016V34.516"/>
<path transform="matrix(1,0,0,-1,0,345.6)" stroke-width=".8" stroke-linecap="butt" stroke-linejoin="round" fill="none" stroke="#000000" d="M117.82386 38.016V34.516"/>
<text xml:space="preserve" transform="matrix(1 0 -0 1 114.64417 322.17778)" font-size="10" font-family="DejaVuSans"><tspan y="0" x="0">5</tspan></text>
<path transform="matrix(1,0,0,-1,0,345.6)" d="M161.81499 38.016V34.516"/>
<path transform="matrix(1,0,0,-1,0,345.6)" stroke-width=".8" stroke-linecap="butt" stroke-linejoin="round" fill="none" stroke="#000000" d="M161.81499 38.016V34.516"/>
<text xml:space="preserve" transform="matrix(1 0 -0 1 155.45561 322.17778)" font-size="10" font-family="DejaVuSans"><tspan y="0" x="0 6.3600008">10</tspan></text>
<path transform="matrix(1,0,0,-1,0,345.6)" d="M205.80612 38.016V34.516"/>
<path transform="matrix(1,0,0,-1,0,345.6)" stroke-width=".8" stroke-linecap="butt" stroke-linejoin="round" fill="none" stroke="#000000" d="M205.80612 38.016V34.516"/>
<text xml:space="preserve" transform="matrix(1 0 -0 1 199.44675 322.17778)" font-size="10" font-family="DejaVuSans"><tspan y="0" x="0 6.3600008">15</tspan></text>
<path transform="matrix(1,0,0,-1,0,345.6)" d="M249.79726 38.016V34.516"/>
<path transform="matrix(1,0,0,-1,0,345.6)" stroke-width=".8" stroke-linecap="butt" stroke-linejoin="round" fill="none" stroke="#000000" d="M249.79726 38.016V34.516"/>
<text xml:space="preserve" transform="matrix(1 0 -0 1 243.43788 322.17778)" font-size="10" font-family="DejaVuSans"><tspan y="0" x="0 6.3600008">20</tspan></text>
<path transform="matrix(1,0,0,-1,0,345.6)" d="M293.7884 38.016V34.516"/>
<path transform="matrix(1,0,0,-1,0,345.6)" stroke-width=".8" stroke-linecap="butt" stroke-linejoin="round" fill="none" stroke="#000000" d="M293.7884 38.016V34.516"/>
<text xml:space="preserve" transform="matrix(1 0 -0 1 287.42903 322.17778)" font-size="10" font-family="DejaVuSans"><tspan y="0" x="0 6.3600008">25</tspan></text>
<path transform="matrix(1,0,0,-1,0,345.6)" d="M337.7795 38.016V34.516"/>
<path transform="matrix(1,0,0,-1,0,345.6)" stroke-width=".8" stroke-linecap="butt" stroke-linejoin="round" fill="none" stroke="#000000" d="M337.7795 38.016V34.516"/>
<text xml:space="preserve" transform="matrix(1 0 -0 1 331.42015 322.17778)" font-size="10" font-family="DejaVuSans"><tspan y="0" x="0 6.3600008">30</tspan></text>
<path transform="matrix(1,0,0,-1,0,345.6)" d="M381.77064 38.016V34.516"/>
<path transform="matrix(1,0,0,-1,0,345.6)" stroke-width=".8" stroke-linecap="butt" stroke-linejoin="round" fill="none" stroke="#000000" d="M381.77064 38.016V34.516"/>
<text xml:space="preserve" transform="matrix(1 0 -0 1 375.41127 322.17778)" font-size="10" font-family="DejaVuSans"><tspan y="0" x="0 6.3600008">35</tspan></text>
<text xml:space="preserve" transform="matrix(1 0 -0 1 210.90219 335.84965)" font-size="10" font-family="DejaVuSans"><tspan y="0" x="0 5.813125 8.593125 18.333127 24.483126 27.663126 31.563126 41.303129 46.513128">Time (ms)</tspan></text>
<path transform="matrix(1,0,0,-1,0,345.6)" d="M57.6 72.18388H54.1"/>
<path transform="matrix(1,0,0,-1,0,345.6)" stroke-width=".8" stroke-linecap="butt" stroke-linejoin="round" fill="none" stroke="#000000" d="M57.6 72.18388H54.1"/>
<text xml:space="preserve" transform="matrix(1 0 -0 1 29.50625 277.213)" font-size="10" font-family="DejaVuSans"><tspan y="0" x="8.378906 14.738907">75</tspan></text>
<g clip-path="url(#clip_0)">
<path transform="matrix(.01,0,0,-.01,29.50625,277.213)" d="M106 355H732V272H106V355Z"/>
</g>
<path transform="matrix(1,0,0,-1,0,345.6)" d="M57.6 108.97036H54.1"/>
<path transform="matrix(1,0,0,-1,0,345.6)" stroke-width=".8" stroke-linecap="butt" stroke-linejoin="round" fill="none" stroke="#000000" d="M57.6 108.97036H54.1"/>
<text xml:space="preserve" transform="matrix(1 0 -0 1 29.50625 240.42652)" font-size="10" font-family="DejaVuSans"><tspan y="0" x="8.378906 14.738907">50</tspan></text>
<g clip-path="url(#clip_1)">
<path transform="matrix(.01,0,0,-.01,29.50625,240.42652)" d="M106 355H732V272H106V355Z"/>
</g>
<path transform="matrix(1,0,0,-1,0,345.6)" d="M57.6 145.75684H54.1"/>
<path transform="matrix(1,0,0,-1,0,345.6)" stroke-width=".8" stroke-linecap="butt" stroke-linejoin="round" fill="none" stroke="#000000" d="M57.6 145.75684H54.1"/>
<text xml:space="preserve" transform="matrix(1 0 -0 1 29.50625 203.64005)" font-size="10" font-family="DejaVuSans"><tspan y="0" x="8.378906 14.738907">25</tspan></text>
<g clip-path="url(#clip_2)">
<path transform="matrix(.01,0,0,-.01,29.50625,203.64005)" d="M106 355H732V272H106V355Z"/>
</g>
<path transform="matrix(1,0,0,-1,0,345.6)" d="M57.6 182.5433H54.1"/>
<path transform="matrix(1,0,0,-1,0,345.6)" stroke-width=".8" stroke-linecap="butt" stroke-linejoin="round" fill="none" stroke="#000000" d="M57.6 182.5433H54.1"/>
<text xml:space="preserve" transform="matrix(1 0 -0 1 44.240625 166.85358)" font-size="10" font-family="DejaVuSans"><tspan y="0" x="0">0</tspan></text>
<path transform="matrix(1,0,0,-1,0,345.6)" d="M57.6 219.32978H54.1"/>
<path transform="matrix(1,0,0,-1,0,345.6)" stroke-width=".8" stroke-linecap="butt" stroke-linejoin="round" fill="none" stroke="#000000" d="M57.6 219.32978H54.1"/>
<text xml:space="preserve" transform="matrix(1 0 -0 1 37.88125 130.06711)" font-size="10" font-family="DejaVuSans"><tspan y="0" x="0 6.3600008">25</tspan></text>
<path transform="matrix(1,0,0,-1,0,345.6)" d="M57.6 256.11625H54.1"/>
<path transform="matrix(1,0,0,-1,0,345.6)" stroke-width=".8" stroke-linecap="butt" stroke-linejoin="round" fill="none" stroke="#000000" d="M57.6 256.11625H54.1"/>
<text xml:space="preserve" transform="matrix(1 0 -0 1 37.88125 93.280628)" font-size="10" font-family="DejaVuSans"><tspan y="0" x="0 6.3600008">50</tspan></text>
<path transform="matrix(1,0,0,-1,0,345.6)" d="M57.6 292.90275H54.1"/>
<path transform="matrix(1,0,0,-1,0,345.6)" stroke-width=".8" stroke-linecap="butt" stroke-linejoin="round" fill="none" stroke="#000000" d="M57.6 292.90275H54.1"/>
<text xml:space="preserve" transform="matrix(1 0 -0 1 37.88125 56.49414)" font-size="10" font-family="DejaVuSans"><tspan y="0" x="0 6.3600008">75</tspan></text>
<text xml:space="preserve" transform="matrix(0 -1 1 0 23.428126 190.153)" font-size="10" font-family="DejaVuSans"><tspan y="0" x="0 6.84 10.74 20.48 27.32">V(mV)</tspan></text>
<g clip-path="url(#clip_3)">
<path transform="matrix(1,0,0,-1,0,345.6)" stroke-width="1.5" stroke-linecap="square" stroke-linejoin="round" fill="none" stroke="#1f77b4" d="M73.832729 78.549 122.22297 78.89279 161.81499 79.1448 175.89215 81.35302 178.53162 81.7477 198.76753 81.28279 219.88329 80.4773 248.91744 79.399539 269.15336 78.887317 290.2691 78.582958 314.9041 78.45639 350.09703 78.52241 398.48728 78.752658"/>
</g>
<g clip-path="url(#clip_4)">
<path transform="matrix(1,0,0,-1,0,345.6)" stroke-width="1.5" stroke-linecap="square" stroke-linejoin="round" fill="none" stroke="#ff7f0e" d="M73.832729 78.549 122.22297 78.89279 160.93517 78.99787 169.7334 81.82089 178.53162 84.58108 196.12807 84.248218 204.04648 83.778 213.72452 82.971569 251.5569 79.533908 262.9946 78.86458 275.3121 78.37063 289.38929 78.040187 306.1059 77.8839 327.22166 77.91939 360.6549 78.22494 398.48728 78.62621"/>
</g>
<g clip-path="url(#clip_5)">
<path transform="matrix(1,0,0,-1,0,345.6)" stroke-width="1.5" stroke-linecap="square" stroke-linejoin="round" fill="none" stroke="#2ca02c" d="M73.832729 78.549 122.22297 78.89279 160.93517 78.99787 167.09392 82.98084 174.1325 87.555507 177.6518 90.088649 178.53162 90.7802 180.29126 91.120449 182.93073 91.926 185.5702 92.97941 188.20967 94.328929 189.96932 95.47249 191.72896 96.915348 193.4886 98.8195 194.36843 100.02944 195.24825 101.48515 196.12807 103.27413 197.00789 105.52877 197.88771 108.45766 198.76753 112.40469 199.64736 117.96662 200.52719 126.235729 201.40702 139.3002 202.28684 161.11806 203.16666 197.63234 204.04648 247.8172 204.9263 282.40055 205.80612 288.03327 206.68595 284.3468 207.56577 277.3531 208.44559 268.2898 211.08506 236.02906 213.72452 205.00977 215.48416 186.89409 217.24382 170.73451 219.00347 156.15575 221.64293 136.31642 224.2824 116.8981 226.04204 102.28044 228.6815 79.08763 229.56133 73.96739 230.44115 71.156169 231.32097 69.967288 232.20079 69.54381 233.96045 69.35984 240.1192 69.37139 262.11479 69.64599 280.59104 70.10582 299.06733 70.80169 320.18309 71.83254 352.7365 73.67802 398.48728 76.24677"/>
</g>
<g clip-path="url(#clip_6)">
<path transform="matrix(1,0,0,-1,0,345.6)" stroke-width="1.5" stroke-linecap="square" stroke-linejoin="round" fill="none" stroke="#d62728" d="M73.832729 78.549 122.22297 78.89279 160.93517 78.99787 166.2141 85.84932 169.7334 90.47667 172.37287 94.350177 174.1325 97.42653 175.01233 99.237369 175.89215 101.33012 176.77198 103.82816 177.6518 106.926128 179.41144 115.303829 180.29126 122.27673 181.17108 133.40032 182.0509 151.95494 182.93073 183.90319 184.69039 279.20668 185.5702 291.0837 186.45003 289.06703 187.32985 283.50526 188.20967 275.6933 189.96932 255.94867 193.4886 213.79892 195.24825 195.06316 197.00789 178.27869 198.76753 163.16481 201.40702 142.8018 204.9263 117.03361 206.68595 102.4146 209.32541 79.13485 210.20523 73.976688 211.08506 71.147228 211.96488 69.956829 212.8447 69.53679 214.60434 69.35715 220.7631 69.36962 242.75867 69.64158 261.23497 70.09834 279.7112 70.79134 300.82698 71.81994 333.3804 73.664279 380.011 76.28036 398.48728 77.18249"/>
</g>
<g clip-path="url(#clip_7)">
<path transform="matrix(1,0,0,-1,0,345.6)" stroke-width="1.5" stroke-linecap="square" stroke-linejoin="round" fill="none" stroke="#9467bd" d="M73.832729 78.549 122.22297 78.89279 160.93517 78.99787 166.2141 87.56834 169.7334 93.47792 171.49304 96.86873 173.25269 101.01154 174.1325 103.601459 175.01233 106.77334 175.89215 110.84988 176.77198 116.39477 177.6518 124.45207 178.53162 137.06093 179.41144 156.90576 180.29126 192.56797 181.17108 244.89443 182.0509 284.63633 182.93073 291.559 183.81055 288.6081 184.69039 282.63264 185.5702 274.55656 187.32985 254.6078 190.84914 212.67549 192.60878 194.0993 194.36843 177.44774 196.12807 162.43488 198.76753 142.1676 202.28684 116.371189 204.04648 101.64853 205.80612 85.53123 206.68595 78.52268 207.56577 73.596248 208.44559 70.969928 209.32541 69.89032 210.20523 69.514278 211.96488 69.35478 219.00347 69.376598 240.99903 69.6591 258.5955 70.10006 277.07176 70.79374 298.1875 71.82287 330.74095 73.66755 377.37153 76.283267 398.48728 77.30454"/>
</g>
<g clip-path="url(#clip_8)">
<path transform="matrix(1,0,0,-1,0,345.6)" stroke-width="1.5" stroke-linecap="square" stroke-linejoin="round" fill="none" stroke="#8c564b" d="M73.832729 78.549 122.22297 78.89279 160.93517 78.99787 168.85358 98.77957 169.7334 101.453868 170.61322 104.52603 171.49304 108.24161 172.37287 113.01724 173.25269 119.60006 174.1325 129.41168 175.01233 145.28041 175.89215 172.63855 176.77198 218.27315 177.6518 271.13853 178.53162 292.032 179.41144 291.16416 180.29126 286.58595 181.17108 279.63108 182.0509 270.89335 183.81055 250.43195 186.45003 218.89601 188.20967 199.78601 189.96932 182.6106 191.72896 167.15602 194.36843 146.42937 198.76753 114.01475 200.52719 98.93053 202.28684 82.955448 203.16666 76.55951 204.04648 72.45541 204.9263 70.46993 205.80612 69.71004 206.68595 69.45461 208.44559 69.34902 218.12364 69.40027 239.23938 69.698589 256.83586 70.16418 275.3121 70.881969 297.30769 71.97759 333.3804 74.04135 374.73207 76.34125 398.48728 77.47055"/>
</g>
<g clip-path="url(#clip_9)">
<path transform="matrix(1,0,0,-1,0,345.6)" stroke-width="1.5" stroke-linecap="square" stroke-linejoin="round" fill="none" stroke="#e377c2" d="M73.832729 50.112H160.93517L161.81499 64.82659H178.53162L179.41144 50.112H398.48728"/>
</g>
<path transform="matrix(1,0,0,-1,0,345.6)" stroke-width=".8" stroke-linecap="square" stroke-miterlimit="10" stroke-linejoin="miter" fill="none" stroke="#000000" d="M57.6 38.016V304.128"/>
<path transform="matrix(1,0,0,-1,0,345.6)" stroke-width=".8" stroke-linecap="square" stroke-miterlimit="10" stroke-linejoin="miter" fill="none" stroke="#000000" d="M414.72 38.016V304.128"/>
<path transform="matrix(1,0,0,-1,0,345.6)" stroke-width=".8" stroke-linecap="square" stroke-miterlimit="10" stroke-linejoin="miter" fill="none" stroke="#000000" d="M57.6 38.016H414.72"/>
<path transform="matrix(1,0,0,-1,0,345.6)" stroke-width=".8" stroke-linecap="square" stroke-miterlimit="10" stroke-linejoin="miter" fill="none" stroke="#000000" d="M57.6 304.128H414.72"/>
</svg>
