<svg xmlns="http://www.w3.org/2000/svg" xmlns:xlink="http://www.w3.org/1999/xlink" version="1.1" width="460.8" height="345.6" viewBox="0 0 460.8 345.6">
<defs>
<clipPath id="clip_0">
<path transform="matrix(.01,0,0,-.01,29.50625,282.6065)" d="M-1021-463H1794V1233H-1021Z"/>
</clipPath>
<clipPath id="clip_1">
<path transform="matrix(.01,0,0,-.01,29.50625,249.24976)" d="M-1021-463H1794V1233H-1021Z"/>
</clipPath>
<clipPath id="clip_2">
<path transform="matrix(.01,0,0,-.01,29.50625,215.893)" d="M-1021-463H1794V1233H-1021Z"/>
</clipPath>
<clipPath id="clip_3">
<path transform="matrix(.01,0,0,-.01,29.50625,182.53626)" d="M-1021-463H1794V1233H-1021Z"/>
</clipPath>
<clipPath id="clip_4">
<path transform="matrix(1,0,0,-1,0,345.6)" d="M57.6 38.016H414.72V304.128H57.6Z"/>
</clipPath>
<clipPath id="clip_5">
<path transform="matrix(1,0,0,-1,0,345.6)" d="M57.6 38.016H414.72V304.128H57.6Z"/>
</clipPath>
<clipPath id="clip_6">
<path transform="matrix(1,0,0,-1,0,345.6)" d="M57.6 38.016H414.72V304.128H57.6Z"/>
</clipPath>
<clipPath id="clip_7">
<path transform="matrix(1,0,0,-1,0,345.6)" d="M57.6 38.016H414.72V304.128H57.6Z"/>
</clipPath>
<clipPath id="clip_8">
<path transform="matrix(1,0,0,-1,0,345.6)" d="M57.6 38.016H414.72V304.128H57.6Z"/>
</clipPath>
<clipPath id="clip_9">
<path transform="matrix(1,0,0,-1,0,345.6)" d="M57.6 38.016H414.72V304.128H57.6Z"/>
</clipPath>
<clipPath id="clip_10">
<path transform="matrix(1,0,0,-1,0,345.6)" d="M57.6 38.016H414.72V304.128H57.6Z"/>
</clipPath>
</defs>
<path transform="matrix(1,0,0,-1,0,345.6)" d="M0 0H460.8V345.6H0Z" fill="#ffffff"/>
<path transform="matrix(1,0,0,-1,0,345.6)" d="M57.6 38.016H414.72V304.128H57.6Z" fill="#ffffff"/>
<path transform="matrix(1,0,0,-1,0,345.6)" d="M73.832729 38.016V34.516"/>
<path transform="matrix(1,0,0,-1,0,345.6)" stroke-width=".8" stroke-linecap="butt" stroke-linejoin="round" fill="none" stroke="#000000" d="M73.832729 38.016V34.516"/>
<text xml:space="preserve" transform="matrix(1 0 -0 1 70.65304 322.17778)" font-size="10" font-family="DejaVuSans"><tspan y="0" x="0">0</tspan></text>
<path transform="matrix(1,0,0,-1,0,345.6)" d="M117.82386 38.016V34.516"/>
<path transform="matrix(1,0,0,-1,0,345.6)" stroke-width=".8" stroke-linecap="butt" stroke-linejoin="round" fill="none" stroke="#000000" d="M117.82386 38.016V34.516"/>
<text xml:space="preserve" transform="matrix(1 0 -0 1 114.64417 322.17778)" font-size="10" font-family="DejaVuSans"><tspan y="0" x="0">5</tspan></text>
<path transform="matrix(1,0,0,-1,0,345.6)" d="M161.81499 38.016V34.516"/>
<path transform="matrix(1,0,0,-1,0,345.6)" stroke-width=".8" stroke-linecap="butt" stroke-linejoin="round" fill="none" stroke="#000000" d="M161.81499 38.016V34.516"/>
<text xml:space="preserve" transform="matrix(1 0 -0 1 155.45561 322.17778)" font-size="10" font-family="DejaVuSans"><tspan y="0" x="0 6.3600008">10</tspan></text>
<path transform="matrix(1,0,0,-1,0,345.6)" d="M205.80612 38.016V34.516"/>
<path transform="matrix(1,0,0,-1,0,345.6)" stroke-width=".8" stroke-linecap="butt" stroke-linejoin="round" fill="none" stroke="#000000" d="M205.80612 38.016V34.516"/>
<text xml:space="preserve" transform="matrix(1 0 -0 1 199.44675 322.17778)" font-size="10" font-family="DejaVuSans"><tspan y="0" x="0 6.3600008">15</tspan></text>
<path transform="matrix(1,0,0,-1,0,345.6)" d="M249.79726 38.016V34.516"/>
<path transform="matrix(1,0,0,-1,0,345.6)" stroke-width=".8" stroke-linecap="butt" stroke-linejoin="round" fill="none" stroke="#000000" d="M249.79726 38.016V34.516"/>
<text xml:space="preserve" transform="matrix(1 0 -0 1 243.43788 322.17778)" font-size="10" font-family="DejaVuSans"><tspan y="0" x="0 6.3600008">20</tspan></text>
<path transform="matrix(1,0,0,-1,0,345.6)" d="M293.7884 38.016V34.516"/>
<path transform="matrix(1,0,0,-1,0,345.6)" stroke-width=".8" stroke-linecap="butt" stroke-linejoin="round" fill="none" stroke="#000000" d="M293.7884 38.016V34.516"/>
<text xml:space="preserve" transform="matrix(1 0 -0 1 287.42903 322.17778)" font-size="10" font-family="DejaVuSans"><tspan y="0" x="0 6.3600008">25</tspan></text>
<path transform="matrix(1,0,0,-1,0,345.6)" d="M337.7795 38.016V34.516"/>
<path transform="matrix(1,0,0,-1,0,345.6)" stroke-width=".8" stroke-linecap="butt" stroke-linejoin="round" fill="none" stroke="#000000" d="M337.7795 38.016V34.516"/>
<text xml:space="preserve" transform="matrix(1 0 -0 1 331.42015 322.17778)" font-size="10" font-family="DejaVuSans"><tspan y="0" x="0 6.3600008">30</tspan></text>
<path transform="matrix(1,0,0,-1,0,345.6)" d="M381.77064 38.016V34.516"/>
<path transform="matrix(1,0,0,-1,0,345.6)" stroke-width=".8" stroke-linecap="butt" stroke-linejoin="round" fill="none" stroke="#000000" d="M381.77064 38.016V34.516"/>
<text xml:space="preserve" transform="matrix(1 0 -0 1 375.41127 322.17778)" font-size="10" font-family="DejaVuSans"><tspan y="0" x="0 6.3600008">35</tspan></text>
<text xml:space="preserve" transform="matrix(1 0 -0 1 210.90219 335.84965)" font-size="10" font-family="DejaVuSans"><tspan y="0" x="0 5.813125 8.593125 18.333127 24.483126 27.663126 31.563126 41.303129 46.513128">Time (ms)</tspan></text>
<path transform="matrix(1,0,0,-1,0,345.6)" d="M57.6 66.790378H54.1"/>
<path transform="matrix(1,0,0,-1,0,345.6)" stroke-width=".8" stroke-linecap="butt" stroke-linejoin="round" fill="none" stroke="#000000" d="M57.6 66.790378H54.1"/>
<text xml:space="preserve" transform="matrix(1 0 -0 1 29.50625 282.6065)" font-size="10" font-family="DejaVuSans"><tspan y="0" x="8.378906 14.738907">80</tspan></text>
<g clip-path="url(#clip_0)">
<path transform="matrix(.01,0,0,-.01,29.50625,282.6065)" d="M106 355H732V272H106V355Z"/>
</g>
<path transform="matrix(1,0,0,-1,0,345.6)" d="M57.6 100.147129H54.1"/>
<path transform="matrix(1,0,0,-1,0,345.6)" stroke-width=".8" stroke-linecap="butt" stroke-linejoin="round" fill="none" stroke="#000000" d="M57.6 100.147129H54.1"/>
<text xml:space="preserve" transform="matrix(1 0 -0 1 29.50625 249.24976)" font-size="10" font-family="DejaVuSans"><tspan y="0" x="8.378906 14.738907">60</tspan></text>
<g clip-path="url(#clip_1)">
<path transform="matrix(.01,0,0,-.01,29.50625,249.24976)" d="M106 355H732V272H106V355Z"/>
</g>
<path transform="matrix(1,0,0,-1,0,345.6)" d="M57.6 133.50388H54.1"/>
<path transform="matrix(1,0,0,-1,0,345.6)" stroke-width=".8" stroke-linecap="butt" stroke-linejoin="round" fill="none" stroke="#000000" d="M57.6 133.50388H54.1"/>
<text xml:space="preserve" transform="matrix(1 0 -0 1 29.50625 215.893)" font-size="10" font-family="DejaVuSans"><tspan y="0" x="8.378906 14.738907">40</tspan></text>
<g clip-path="url(#clip_2)">
<path transform="matrix(.01,0,0,-.01,29.50625,215.893)" d="M106 355H732V272H106V355Z"/>
</g>
<path transform="matrix(1,0,0,-1,0,345.6)" d="M57.6 166.86063H54.1"/>
<path transform="matrix(1,0,0,-1,0,345.6)" stroke-width=".8" stroke-linecap="butt" stroke-linejoin="round" fill="none" stroke="#000000" d="M57.6 166.86063H54.1"/>
<text xml:space="preserve" transform="matrix(1 0 -0 1 29.50625 182.53626)" font-size="10" font-family="DejaVuSans"><tspan y="0" x="8.378906 14.738907">20</tspan></text>
<g clip-path="url(#clip_3)">
<path transform="matrix(.01,0,0,-.01,29.50625,182.53626)" d="M106 355H732V272H106V355Z"/>
</g>
<path transform="matrix(1,0,0,-1,0,345.6)" d="M57.6 200.21738H54.1"/>
<path transform="matrix(1,0,0,-1,0,345.6)" stroke-width=".8" stroke-linecap="butt" stroke-linejoin="round" fill="none" stroke="#000000" d="M57.6 200.21738H54.1"/>
<text xml:space="preserve" transform="matrix(1 0 -0 1 44.240625 149.1795)" font-size="10" font-family="DejaVuSans"><tspan y="0" x="0">0</tspan></text>
<path transform="matrix(1,0,0,-1,0,345.6)" d="M57.6 233.57413H54.1"/>
<path transform="matrix(1,0,0,-1,0,345.6)" stroke-width=".8" stroke-linecap="butt" stroke-linejoin="round" fill="none" stroke="#000000" d="M57.6 233.57413H54.1"/>
<text xml:space="preserve" transform="matrix(1 0 -0 1 37.88125 115.822757)" font-size="10" font-family="DejaVuSans"><tspan y="0" x="0 6.3600008">20</tspan></text>
<path transform="matrix(1,0,0,-1,0,345.6)" d="M57.6 266.93089H54.1"/>
<path transform="matrix(1,0,0,-1,0,345.6)" stroke-width=".8" stroke-linecap="butt" stroke-linejoin="round" fill="none" stroke="#000000" d="M57.6 266.93089H54.1"/>
<text xml:space="preserve" transform="matrix(1 0 -0 1 37.88125 82.466)" font-size="10" font-family="DejaVuSans"><tspan y="0" x="0 6.3600008">40</tspan></text>
<path transform="matrix(1,0,0,-1,0,345.6)" d="M57.6 300.28764H54.1"/>
<path transform="matrix(1,0,0,-1,0,345.6)" stroke-width=".8" stroke-linecap="butt" stroke-linejoin="round" fill="none" stroke="#000000" d="M57.6 300.28764H54.1"/>
<text xml:space="preserve" transform="matrix(1 0 -0 1 37.88125 49.109254)" font-size="10" font-family="DejaVuSans"><tspan y="0" x="0 6.3600008">60</tspan></text>
<text xml:space="preserve" transform="matrix(0 -1 1 0 23.428126 190.153)" font-size="10" font-family="DejaVuSans"><tspan y="0" x="0 6.84 10.74 20.48 27.32">V(mV)</tspan></text>
<g clip-path="url(#clip_4)">
<path transform="matrix(1,0,0,-1,0,345.6)" stroke-width="1.5" stroke-linecap="square" stroke-linejoin="round" fill="none" stroke="#1f77b4" d="M73.832729 82.33839 139.81943 82.50045 160.93517 82.51186 172.37287 84.55454 178.53162 85.579738 198.76753 84.94667 257.71568 82.69806 277.95158 82.30493 300.82698 82.09515 329.8611 82.06426 384.41014 82.27978 398.48728 82.339839"/>
</g>
<g clip-path="url(#clip_5)">
<path transform="matrix(1,0,0,-1,0,345.6)" stroke-width="1.5" stroke-linecap="square" stroke-linejoin="round" fill="none" stroke="#ff7f0e" d="M73.832729 82.33839 139.81943 82.50045 160.93517 82.51186 168.85358 85.38291 178.53162 88.72452 194.36843 88.07873 203.16666 87.394809 215.48416 86.188777 235.7201 84.1933 247.15778 83.29312 258.5955 82.60875 270.913 82.09515 284.99015 81.74079 301.7068 81.557559 322.82255 81.56341 356.2558 81.830478 398.48728 82.23407"/>
</g>
<g clip-path="url(#clip_6)">
<path transform="matrix(1,0,0,-1,0,345.6)" stroke-width="1.5" stroke-linecap="square" stroke-linejoin="round" fill="none" stroke="#2ca02c" d="M73.832729 82.33839 139.81943 82.50045 160.93517 82.51186 167.09392 87.01242 175.89215 93.382747 178.53162 95.46365 180.29126 95.65805 183.81055 96.34695 189.0895 97.65393 193.4886 98.98339 197.00789 100.31944 199.64736 101.59427 201.40702 102.64956 203.16666 103.95131 204.9263 105.618999 205.80612 106.649059 206.68595 107.85819 207.56577 109.30011 208.44559 111.05111 209.32541 113.22276 210.20523 115.983669 211.08506 119.59803 211.96488 124.49688 212.8447 131.4128 213.72452 141.63397 214.60434 157.43144 215.48416 182.39287 217.24382 260.2971 218.12364 282.15513 219.00347 284.9635 219.88329 281.35328 220.7631 274.9856 221.64293 266.83265 223.40258 247.55301 226.92186 207.7219 228.6815 189.80455 231.32097 165.76065 234.84027 137.01906 236.59992 122.25541 238.35956 105.57731 240.1192 87.96648 240.99903 80.8063 241.87885 76.0423 242.75867 73.57733 243.63849 72.53763 244.51831 72.14469 246.27796 71.95137 251.5569 71.95483 271.79283 72.24621 288.50947 72.70061 305.22608 73.374 324.58219 74.38835 350.97685 76.01845 398.48728 79.03596"/>
</g>
<g clip-path="url(#clip_7)">
<path transform="matrix(1,0,0,-1,0,345.6)" stroke-width="1.5" stroke-linecap="square" stroke-linejoin="round" fill="none" stroke="#d62728" d="M73.832729 82.33839 139.81943 82.50045 160.93517 82.51186 166.2141 90.26126 170.61322 96.75145 172.37287 99.58405 174.1325 102.763629 175.89215 106.59256 176.77198 108.919109 177.6518 111.6769 179.41144 118.09632 180.29126 122.70061 181.17108 129.4789 182.0509 139.683 182.93073 155.72783 183.81055 181.77352 185.5702 266.98735 186.45003 288.7695 187.32985 290.4779 188.20967 287.20509 189.0895 281.718 189.96932 274.54188 191.72896 256.7822 197.00789 199.28046 199.64736 174.55634 202.28684 152.45079 205.80612 123.78178 207.56577 107.267787 209.32541 89.44614 210.20523 81.880519 211.08506 76.63606 211.96488 73.82369 212.8447 72.61905 213.72452 72.166667 215.48416 71.94914 220.7631 71.94968 240.99903 72.23436 257.71568 72.68131 274.43229 73.347408 293.7884 74.35544 320.18309 75.98165 377.37153 79.56612 398.48728 80.68299"/>
</g>
<g clip-path="url(#clip_8)">
<path transform="matrix(1,0,0,-1,0,345.6)" stroke-width="1.5" stroke-linecap="square" stroke-linejoin="round" fill="none" stroke="#9467bd" d="M73.832729 82.33839 139.81943 82.50045 160.93517 82.51186 165.33428 90.61197 169.7334 98.752758 171.49304 102.38016 173.25269 106.62474 174.1325 109.1629 175.01233 112.15187 175.89215 115.81375 176.77198 120.51133 177.6518 126.86629 178.53162 135.9959 179.41144 148.40471 180.29126 169.75925 181.17108 204.34833 182.0509 250.78484 182.93073 284.4773 183.81055 291.34669 184.69039 289.35618 185.5702 284.7528 186.45003 278.3142 187.32985 270.42918 189.0895 251.93576 193.4886 203.83815 196.12807 178.62468 198.76753 156.17748 203.16666 120.07734 204.9263 103.029239 206.68595 85.610378 207.56577 79.054088 208.44559 75.02718 209.32541 73.10641 210.20523 72.344448 211.08506 72.067607 212.8447 71.93739 219.88329 71.96911 240.1192 72.27965 256.83586 72.75443 273.55247 73.44756 292.90858 74.479007 320.18309 76.17674 372.9724 79.48756 397.60746 80.78626 398.48728 80.828098"/>
</g>
<g clip-path="url(#clip_9)">
<path transform="matrix(1,0,0,-1,0,345.6)" stroke-width="1.5" stroke-linecap="square" stroke-linejoin="round" fill="none" stroke="#8c564b" d="M73.832729 82.33839 139.81943 82.50045 160.93517 82.51186 165.33428 94.670459 167.97374 102.0372 169.7334 107.529338 170.61322 110.71834 171.49304 114.44606 172.37287 119.03836 173.25269 125.04775 174.1325 133.45754 175.01233 146.09053 175.89215 166.31444 176.77198 199.298 177.6518 246.0343 178.53162 283.9438 179.41144 292.032 180.29126 290.51014 181.17108 286.3027 182.0509 280.24909 182.93073 272.6998 184.69039 254.64266 189.0895 206.55603 191.72896 181.11045 194.36843 158.47602 198.76753 122.62562 200.52719 105.927608 202.28684 88.165477 203.16666 80.890308 204.04648 76.04005 204.9263 73.54405 205.80612 72.50739 206.68595 72.12464 208.44559 71.94307 213.72452 71.94989 233.96045 72.23497 250.67708 72.68233 267.3937 73.34882 286.7498 74.35723 313.14448 75.983638 370.33296 79.56794 394.968 80.85325 398.48728 81.01623"/>
</g>
<g clip-path="url(#clip_10)">
<path transform="matrix(1,0,0,-1,0,345.6)" stroke-width="1.5" stroke-linecap="square" stroke-linejoin="round" fill="none" stroke="#e377c2" d="M73.832729 50.112H160.93517L161.81499 66.790378H178.53162L179.41144 50.112H398.48728"/>
</g>
<path transform="matrix(1,0,0,-1,0,345.6)" stroke-width=".8" stroke-linecap="square" stroke-miterlimit="10" stroke-linejoin="miter" fill="none" stroke="#000000" d="M57.6 38.016V304.128"/>
<path transform="matrix(1,0,0,-1,0,345.6)" stroke-width=".8" stroke-linecap="square" stroke-miterlimit="10" stroke-linejoin="miter" fill="none" stroke="#000000" d="M414.72 38.016V304.128"/>
<path transform="matrix(1,0,0,-1,0,345.6)" stroke-width=".8" stroke-linecap="square" stroke-miterlimit="10" stroke-linejoin="miter" fill="none" stroke="#000000" d="M57.6 38.016H414.72"/>
<path transform="matrix(1,0,0,-1,0,345.6)" stroke-width=".8" stroke-linecap="square" stroke-miterlimit="10" stroke-linejoin="miter" fill="none" stroke="#000000" d="M57.6 304.128H414.72"/>
</svg>
