<svg xmlns="http://www.w3.org/2000/svg" xmlns:xlink="http://www.w3.org/1999/xlink" version="1.1" width="460.8" height="345.6" viewBox="0 0 460.8 345.6">
<defs>
<clipPath id="clip_0">
<path transform="matrix(.01,0,0,-.01,29.50625,279.57508)" d="M-1021-463H1794V1233H-1021Z"/>
</clipPath>
<clipPath id="clip_1">
<path transform="matrix(.01,0,0,-.01,29.50625,246.7254)" d="M-1021-463H1794V1233H-1021Z"/>
</clipPath>
<clipPath id="clip_2">
<path transform="matrix(.01,0,0,-.01,29.50625,213.87574)" d="M-1021-463H1794V1233H-1021Z"/>
</clipPath>
<clipPath id="clip_3">
<path transform="matrix(1,0,0,-1,0,345.6)" d="M57.6 38.016H414.72V304.128H57.6Z"/>
</clipPath>
<clipPath id="clip_4">
<path transform="matrix(1,0,0,-1,0,345.6)" d="M57.6 38.016H414.72V304.128H57.6Z"/>
</clipPath>
<clipPath id="clip_5">
<path transform="matrix(1,0,0,-1,0,345.6)" d="M57.6 38.016H414.72V304.128H57.6Z"/>
</clipPath>
<clipPath id="clip_6">
<path transform="matrix(1,0,0,-1,0,345.6)" d="M57.6 38.016H414.72V304.128H57.6Z"/>
</clipPath>
<clipPath id="clip_7">
<path transform="matrix(1,0,0,-1,0,345.6)" d="M57.6 38.016H414.72V304.128H57.6Z"/>
</clipPath>
<clipPath id="clip_8">
<path transform="matrix(1,0,0,-1,0,345.6)" d="M57.6 38.016H414.72V304.128H57.6Z"/>
</clipPath>
<clipPath id="clip_9">
<path transform="matrix(1,0,0,-1,0,345.6)" d="M57.6 38.016H414.72V304.128H57.6Z"/>
</clipPath>
</defs>
<path transform="matrix(1,0,0,-1,0,345.6)" d="M0 0H460.8V345.6H0Z" fill="#ffffff"/>
<path transform="matrix(1,0,0,-1,0,345.6)" d="M57.6 38.016H414.72V304.128H57.6Z" fill="#ffffff"/>
<path transform="matrix(1,0,0,-1,0,345.6)" d="M73.832729 38.016V34.516"/>
<path transform="matrix(1,0,0,-1,0,345.6)" stroke-width=".8" stroke-linecap="butt" stroke-linejoin="round" fill="none" stroke="#000000" d="M73.832729 38.016V34.516"/>
<text xml:space="preserve" transform="matrix(1 0 -0 1 70.65304 322.17778)" font-size="10" font-family="DejaVuSans"><tspan y="0" x="0">0</tspan></text>
<path transform="matrix(1,0,0,-1,0,345.6)" d="M117.82386 38.016V34.516"/>
<path transform="matrix(1,0,0,-1,0,345.6)" stroke-width=".8" stroke-linecap="butt" stroke-linejoin="round" fill="none" stroke="#000000" d="M117.82386 38.016V34.516"/>
<text xml:space="preserve" transform="matrix(1 0 -0 1 114.64417 322.17778)" font-size="10" font-family="DejaVuSans"><tspan y="0" x="0">5</tspan></text>
<path transform="matrix(1,0,0,-1,0,345.6)" d="M161.81499 38.016V34.516"/>
<path transform="matrix(1,0,0,-1,0,345.6)" stroke-width=".8" stroke-linecap="butt" stroke-linejoin="round" fill="none" stroke="#000000" d="M161.81499 38.016V34.516"/>
<text xml:space="preserve" transform="matrix(1 0 -0 1 155.45561 322.17778)" font-size="10" font-family="DejaVuSans"><tspan y="0" x="0 6.3600008">10</tspan></text>
<path transform="matrix(1,0,0,-1,0,345.6)" d="M205.80612 38.016V34.516"/>
<path transform="matrix(1,0,0,-1,0,345.6)" stroke-width=".8" stroke-linecap="butt" stroke-linejoin="round" fill="none" stroke="#000000" d="M205.80612 38.016V34.516"/>
<text xml:space="preserve" transform="matrix(1 0 -0 1 199.44675 322.17778)" font-size="10" font-family="DejaVuSans"><tspan y="0" x="0 6.3600008">15</tspan></text>
<path transform="matrix(1,0,0,-1,0,345.6)" d="M249.79726 38.016V34.516"/>
<path transform="matrix(1,0,0,-1,0,345.6)" stroke-width=".8" stroke-linecap="butt" stroke-linejoin="round" fill="none" stroke="#000000" d="M249.79726 38.016V34.516"/>
<text xml:space="preserve" transform="matrix(1 0 -0 1 243.43788 322.17778)" font-size="10" font-family="DejaVuSans"><tspan y="0" x="0 6.3600008">20</tspan></text>
<path transform="matrix(1,0,0,-1,0,345.6)" d="M293.7884 38.016V34.516"/>
<path transform="matrix(1,0,0,-1,0,345.6)" stroke-width=".8" stroke-linecap="butt" stroke-linejoin="round" fill="none" stroke="#000000" d="M293.7884 38.016V34.516"/>
<text xml:space="preserve" transform="matrix(1 0 -0 1 287.42903 322.17778)" font-size="10" font-family="DejaVuSans"><tspan y="0" x="0 6.3600008">25</tspan></text>
<path transform="matrix(1,0,0,-1,0,345.6)" d="M337.7795 38.016V34.516"/>
<path transform="matrix(1,0,0,-1,0,345.6)" stroke-width=".8" stroke-linecap="butt" stroke-linejoin="round" fill="none" stroke="#000000" d="M337.7795 38.016V34.516"/>
<text xml:space="preserve" transform="matrix(1 0 -0 1 331.42015 322.17778)" font-size="10" font-family="DejaVuSans"><tspan y="0" x="0 6.3600008">30</tspan></text>
<path transform="matrix(1,0,0,-1,0,345.6)" d="M381.77064 38.016V34.516"/>
<path transform="matrix(1,0,0,-1,0,345.6)" stroke-width=".8" stroke-linecap="butt" stroke-linejoin="round" fill="none" stroke="#000000" d="M381.77064 38.016V34.516"/>
<text xml:space="preserve" transform="matrix(1 0 -0 1 375.41127 322.17778)" font-size="10" font-family="DejaVuSans"><tspan y="0" x="0 6.3600008">35</tspan></text>
<text xml:space="preserve" transform="matrix(1 0 -0 1 210.90219 335.84965)" font-size="10" font-family="DejaVuSans"><tspan y="0" x="0 5.813125 8.593125 18.333127 24.483126 27.663126 31.563126 41.303129 46.513128">Time (ms)</tspan></text>
<path transform="matrix(1,0,0,-1,0,345.6)" d="M57.6 69.8218H54.1"/>
<path transform="matrix(1,0,0,-1,0,345.6)" stroke-width=".8" stroke-linecap="butt" stroke-linejoin="round" fill="none" stroke="#000000" d="M57.6 69.8218H54.1"/>
<text xml:space="preserve" transform="matrix(1 0 -0 1 29.50625 279.57508)" font-size="10" font-family="DejaVuSans"><tspan y="0" x="8.378906 14.738907">75</tspan></text>
<g clip-path="url(#clip_0)">
<path transform="matrix(.01,0,0,-.01,29.50625,279.57508)" d="M106 355H732V272H106V355Z"/>
</g>
<path transform="matrix(1,0,0,-1,0,345.6)" d="M57.6 102.67148H54.1"/>
<path transform="matrix(1,0,0,-1,0,345.6)" stroke-width=".8" stroke-linecap="butt" stroke-linejoin="round" fill="none" stroke="#000000" d="M57.6 102.67148H54.1"/>
<text xml:space="preserve" transform="matrix(1 0 -0 1 29.50625 246.7254)" font-size="10" font-family="DejaVuSans"><tspan y="0" x="8.378906 14.738907">50</tspan></text>
<g clip-path="url(#clip_1)">
<path transform="matrix(.01,0,0,-.01,29.50625,246.7254)" d="M106 355H732V272H106V355Z"/>
</g>
<path transform="matrix(1,0,0,-1,0,345.6)" d="M57.6 135.52115H54.1"/>
<path transform="matrix(1,0,0,-1,0,345.6)" stroke-width=".8" stroke-linecap="butt" stroke-linejoin="round" fill="none" stroke="#000000" d="M57.6 135.52115H54.1"/>
<text xml:space="preserve" transform="matrix(1 0 -0 1 29.50625 213.87574)" font-size="10" font-family="DejaVuSans"><tspan y="0" x="8.378906 14.738907">25</tspan></text>
<g clip-path="url(#clip_2)">
<path transform="matrix(.01,0,0,-.01,29.50625,213.87574)" d="M106 355H732V272H106V355Z"/>
</g>
<path transform="matrix(1,0,0,-1,0,345.6)" d="M57.6 168.37082H54.1"/>
<path transform="matrix(1,0,0,-1,0,345.6)" stroke-width=".8" stroke-linecap="butt" stroke-linejoin="round" fill="none" stroke="#000000" d="M57.6 168.37082H54.1"/>
<text xml:space="preserve" transform="matrix(1 0 -0 1 44.240625 181.02606)" font-size="10" font-family="DejaVuSans"><tspan y="0" x="0">0</tspan></text>
<path transform="matrix(1,0,0,-1,0,345.6)" d="M57.6 201.22049H54.1"/>
<path transform="matrix(1,0,0,-1,0,345.6)" stroke-width=".8" stroke-linecap="butt" stroke-linejoin="round" fill="none" stroke="#000000" d="M57.6 201.22049H54.1"/>
<text xml:space="preserve" transform="matrix(1 0 -0 1 37.88125 148.17639)" font-size="10" font-family="DejaVuSans"><tspan y="0" x="0 6.3600008">25</tspan></text>
<path transform="matrix(1,0,0,-1,0,345.6)" d="M57.6 234.07016H54.1"/>
<path transform="matrix(1,0,0,-1,0,345.6)" stroke-width=".8" stroke-linecap="butt" stroke-linejoin="round" fill="none" stroke="#000000" d="M57.6 234.07016H54.1"/>
<text xml:space="preserve" transform="matrix(1 0 -0 1 37.88125 115.32672)" font-size="10" font-family="DejaVuSans"><tspan y="0" x="0 6.3600008">50</tspan></text>
<path transform="matrix(1,0,0,-1,0,345.6)" d="M57.6 266.91984H54.1"/>
<path transform="matrix(1,0,0,-1,0,345.6)" stroke-width=".8" stroke-linecap="butt" stroke-linejoin="round" fill="none" stroke="#000000" d="M57.6 266.91984H54.1"/>
<text xml:space="preserve" transform="matrix(1 0 -0 1 37.88125 82.47705)" font-size="10" font-family="DejaVuSans"><tspan y="0" x="0 6.3600008">75</tspan></text>
<path transform="matrix(1,0,0,-1,0,345.6)" d="M57.6 299.7695H54.1"/>
<path transform="matrix(1,0,0,-1,0,345.6)" stroke-width=".8" stroke-linecap="butt" stroke-linejoin="round" fill="none" stroke="#000000" d="M57.6 299.7695H54.1"/>
<text xml:space="preserve" transform="matrix(1 0 -0 1 31.521876 49.62738)" font-size="10" font-family="DejaVuSans"><tspan y="0" x="0 6.3600008 12.720001">100</tspan></text>
<text xml:space="preserve" transform="matrix(0 -1 1 0 23.428126 190.153)" font-size="10" font-family="DejaVuSans"><tspan y="0" x="0 6.84 10.74 20.48 27.32">V(mV)</tspan></text>
<g clip-path="url(#clip_3)">
<path transform="matrix(1,0,0,-1,0,345.6)" stroke-width="1.5" stroke-linecap="square" stroke-linejoin="round" fill="none" stroke="#1f77b4" d="M73.832729 75.5103 117.82386 75.99402 156.53606 76.19736 160.93517 76.20727 175.89215 78.34579 178.53162 78.71219 198.76753 78.40956 215.48416 77.86494 261.23497 76.24159 281.47087 75.823429 303.46644 75.59882 330.74095 75.554729 373.85224 75.73872 398.48728 75.874538"/>
</g>
<g clip-path="url(#clip_4)">
<path transform="matrix(1,0,0,-1,0,345.6)" stroke-width="1.5" stroke-linecap="square" stroke-linejoin="round" fill="none" stroke="#ff7f0e" d="M73.832729 75.5103 117.82386 75.99402 156.53606 76.19736 160.93517 76.20727 171.49304 79.2513 178.53162 81.30615 200.52719 81.33937 208.44559 80.967578 217.24382 80.30456 228.6815 79.17622 248.91744 77.14796 259.4753 76.32954 270.03318 75.72159 281.47087 75.27571 294.6682 74.98059 310.505 74.850269 331.62077 74.91591 365.05403 75.28066 398.48728 75.69981"/>
</g>
<g clip-path="url(#clip_5)">
<path transform="matrix(1,0,0,-1,0,345.6)" stroke-width="1.5" stroke-linecap="square" stroke-linejoin="round" fill="none" stroke="#2ca02c" d="M73.832729 75.5103 117.82386 75.99402 156.53606 76.19736 160.93517 76.20727 168.85358 80.79357 174.1325 83.987598 176.77198 85.781 178.53162 87.123279 180.29126 87.62614 182.0509 88.36481 183.81055 89.31153 185.5702 90.510929 187.32985 92.07592 188.20967 93.05775 189.0895 94.2266 189.96932 95.64596 190.84914 97.4108 191.72896 99.66886 192.60878 102.66072 193.4886 106.79942 194.36843 112.838619 195.24825 122.24424 196.12807 138.01535 197.00789 166.11014 197.88771 214.14608 198.76753 268.76567 199.64736 288.3263 200.52719 286.7642 201.40702 279.97273 202.28684 270.42628 204.9263 235.6809 206.68595 213.39255 208.44559 193.66684 210.20523 176.45003 211.96488 161.31505 213.72452 147.78887 216.364 129.57273 219.88329 105.91996 221.64293 92.10536 223.40258 77.87537 224.2824 72.54868 225.16222 69.38333 226.04204 67.98312 226.92186 67.49046 228.6815 67.291408 235.7201 67.30464 258.5955 67.55634 277.95158 67.9937 297.30769 68.66332 320.18309 69.69236 358.89527 71.705 398.48728 73.716259"/>
</g>
<g clip-path="url(#clip_6)">
<path transform="matrix(1,0,0,-1,0,345.6)" stroke-width="1.5" stroke-linecap="square" stroke-linejoin="round" fill="none" stroke="#d62728" d="M73.832729 75.5103 117.82386 75.99402 156.53606 76.19736 160.93517 76.20727 170.61322 87.70851 172.37287 90.22701 174.1325 93.27438 175.01233 95.14053 175.89215 97.37271 176.77198 100.15098 177.6518 103.77733 178.53162 108.78907 179.41144 115.190868 180.29126 126.18467 181.17108 145.45798 182.0509 180.44278 182.93073 236.53893 183.81055 282.9778 184.69039 290.8505 185.5702 287.05824 186.45003 279.67604 187.32985 269.9842 192.60878 203.7479 194.36843 185.5012 196.12807 169.47657 197.88771 155.23972 200.52719 136.31038 204.9263 106.90931 206.68595 93.219699 208.44559 78.82157 209.32541 73.19334 210.20523 69.70532 211.08506 68.1025 211.96488 67.52679 212.8447 67.34638 215.48416 67.27734 235.7201 67.438068 255.95601 67.80043 274.43229 68.35276 295.54804 69.219287 323.70237 70.61915 392.32853 74.110729 398.48728 74.3839"/>
</g>
<g clip-path="url(#clip_7)">
<path transform="matrix(1,0,0,-1,0,345.6)" stroke-width="1.5" stroke-linecap="square" stroke-linejoin="round" fill="none" stroke="#9467bd" d="M73.832729 75.5103 117.82386 75.99402 156.53606 76.19736 160.93517 76.20727 169.7334 89.29775 171.49304 92.52886 172.37287 94.437328 173.25269 96.66718 174.1325 99.38152 175.01233 102.85075 175.89215 107.54991 176.77198 114.37012 177.6518 125.100299 178.53162 143.50453 179.41144 175.85187 181.17108 280.87059 182.0509 291.25144 182.93073 287.99275 183.81055 280.9881 184.69039 271.5799 187.32985 237.57366 189.0895 215.55617 190.84914 195.91486 192.60878 178.67325 194.36843 163.46431 196.12807 149.85144 198.76753 131.534 202.28684 108.10268 204.04648 94.58991 205.80612 80.06711 206.68595 74.09605 207.56577 70.19167 208.44559 68.296848 209.32541 67.59039 210.20523 67.36535 211.96488 67.280338 224.2824 67.346149 246.27796 67.6431 264.75425 68.11119 284.11033 68.82415 307.86555 69.93063 398.48728 74.48942"/>
</g>
<g clip-path="url(#clip_8)">
<path transform="matrix(1,0,0,-1,0,345.6)" stroke-width="1.5" stroke-linecap="square" stroke-linejoin="round" fill="none" stroke="#8c564b" d="M73.832729 75.5103 117.82386 75.99402 156.53606 76.19736 160.93517 76.20727 167.97374 91.837558 169.7334 96.662158 170.61322 99.681148 171.49304 103.464557 172.37287 108.54609 173.25269 115.93911 174.1325 127.70428 175.01233 148.20319 175.89215 185.69489 176.77198 244.40761 177.6518 287.1338 178.53162 292.032 179.41144 287.372 180.29126 279.9242 181.17108 270.2881 186.45003 204.50392 188.20967 186.28377 189.96932 170.25246 191.72896 155.99414 194.36843 137.02884 199.64736 101.16111 203.16666 73.76709 204.04648 70.007648 204.9263 68.2202 205.80612 67.56414 206.68595 67.357 209.32541 67.27685 228.6815 67.42532 248.91744 67.77531 267.3937 68.31539 287.6296 69.13122 314.9041 70.47194 389.68907 74.26031 398.48728 74.63857"/>
</g>
<g clip-path="url(#clip_9)">
<path transform="matrix(1,0,0,-1,0,345.6)" stroke-width="1.5" stroke-linecap="square" stroke-linejoin="round" fill="none" stroke="#e377c2" d="M73.832729 50.112H160.93517L161.81499 63.25187H178.53162L179.41144 50.112H398.48728"/>
</g>
<path transform="matrix(1,0,0,-1,0,345.6)" stroke-width=".8" stroke-linecap="square" stroke-miterlimit="10" stroke-linejoin="miter" fill="none" stroke="#000000" d="M57.6 38.016V304.128"/>
<path transform="matrix(1,0,0,-1,0,345.6)" stroke-width=".8" stroke-linecap="square" stroke-miterlimit="10" stroke-linejoin="miter" fill="none" stroke="#000000" d="M414.72 38.016V304.128"/>
<path transform="matrix(1,0,0,-1,0,345.6)" stroke-width=".8" stroke-linecap="square" stroke-miterlimit="10" stroke-linejoin="miter" fill="none" stroke="#000000" d="M57.6 38.016H414.72"/>
<path transform="matrix(1,0,0,-1,0,345.6)" stroke-width=".8" stroke-linecap="square" stroke-miterlimit="10" stroke-linejoin="miter" fill="none" stroke="#000000" d="M57.6 304.128H414.72"/>
</svg>
